<?xml version="1.0" encoding="UTF-8" standalone="no"?>
<!-- Created with Inkscape (http://www.inkscape.org/) -->

<svg
   width="28.567438mm"
   height="37.38612mm"
   viewBox="0 0 28.567438 37.38612"
   version="1.1"
   id="svg2550"
   inkscape:version="1.2.2 (732a01da63, 2022-12-09)"
   sodipodi:docname="bg_button2.svg"
   xmlns:inkscape="http://www.inkscape.org/namespaces/inkscape"
   xmlns:sodipodi="http://sodipodi.sourceforge.net/DTD/sodipodi-0.dtd"
   xmlns="http://www.w3.org/2000/svg"
   xmlns:svg="http://www.w3.org/2000/svg">
  <sodipodi:namedview
     id="namedview2552"
     pagecolor="#ffffff"
     bordercolor="#000000"
     borderopacity="0.25"
     inkscape:showpageshadow="2"
     inkscape:pageopacity="0.0"
     inkscape:pagecheckerboard="0"
     inkscape:deskcolor="#d1d1d1"
     inkscape:document-units="mm"
     showgrid="false"
     inkscape:zoom="0.70199214"
     inkscape:cx="43.44778"
     inkscape:cy="146.72529"
     inkscape:window-width="2880"
     inkscape:window-height="1526"
     inkscape:window-x="5749"
     inkscape:window-y="-11"
     inkscape:window-maximized="1"
     inkscape:current-layer="layer1" />
  <defs
     id="defs2547" />
  <g
     inkscape:label="Ebene 1"
     inkscape:groupmode="layer"
     id="layer1"
     transform="translate(-93.887602,-109.83105)">
    <path
       fill="#30261e"
       opacity="1"
       stroke="none"
       d="m 95.073873,119.91284 c -0.30045,-3.17362 -0.6009,-6.34724 -0.784222,-9.6302 0.232931,-0.0734 0.348736,-0.0375 0.510611,0.0843 0.511485,0.14805 0.976815,0.26371 1.442307,0.26447 7.966181,0.0129 15.932391,0.0116 23.981211,0.0157 0.16554,0.0815 0.24845,0.16076 0.33134,0.23999 -0.0435,0.004 -0.087,0.0124 -0.13052,0.0124 -1.70525,0.003 -3.41145,-0.0249 -5.11509,0.0287 -0.40385,0.0127 -0.79916,0.29758 -1.30693,0.47988 -1.28954,0.0401 -2.47055,0.0576 -3.76931,0.0553 -0.83262,-0.006 -1.54752,0.007 -2.38125,8e-4 -0.92151,-0.009 -1.72412,0.002 -2.62168,-0.006 -2.68079,-0.007 -5.266697,0.005 -7.966953,-8e-4 -0.62866,-0.0179 -1.142968,-0.0179 -1.558528,-0.0179 0.29286,3.60768 0.576191,7.09792 0.788355,10.6708 -0.102028,3.26553 -0.140253,6.44839 -0.145825,9.63134 -2.64e-4,0.1947 0.257948,0.38985 0.431549,0.68671 0.461486,3.23461 2.373852,5.11174 5.091562,6.22662 -0.60677,0.22103 -1.10477,0.43223 -1.69553,0.62235 -3.333215,-1.69584 -4.91238,-4.38549 -4.970049,-8.00465 -0.0024,-2.73686 -0.0047,-5.47374 0.0999,-8.40413 -0.0057,-1.11446 -0.118306,-2.03535 -0.230944,-2.95625 m 0.719675,3.8906 c 0,2.29949 0,4.59898 0,6.89845 0.05633,-0.001 0.112654,-0.003 0.168984,-0.004 0,-2.76792 0,-5.53584 0,-8.30377 -0.05622,2.6e-4 -0.112446,7.9e-4 -0.168662,10e-4 0,0.38901 0,0.77803 -2.64e-4,1.40828 z"
       id="path100"
       style="stroke-width:0.264583" />
    <path
       fill="#dad8d0"
       opacity="1"
       stroke="none"
       d="m 95.10693,131.27994 c 0.15566,3.61244 1.734825,6.30209 5.12566,8.06228 0.75245,0.28538 1.3545,0.48532 1.95091,0.79301 0.33517,1.0184 -0.11341,1.36894 -0.91669,1.75197 -1.432681,0.68315 -2.771586,1.56294 -4.1497,2.36052 -0.569426,-0.67084 -1.138851,-1.34168 -1.77791,-2.06612 -1.421101,-2.47902 -1.617504,-5.12356 -1.349256,-7.79202 0.106341,-1.05775 0.665819,-2.06996 1.116986,-3.10964 z"
       id="path106"
       style="stroke-width:0.264583" />
    <path
       fill="#faf9f8"
       opacity="1"
       stroke="none"
       d="m 94.754174,110.28106 c -0.115787,-0.0359 -0.231592,-0.0718 -0.439346,-0.11545 -0.09497,-0.0627 -0.09794,-0.11766 0.02117,-0.25026 6.117282,-0.0798 12.112452,-0.0821 18.107632,-0.0843 0.3185,0.0484 0.63701,0.0967 0.89638,0.24182 -6.23472,0.13392 -12.41026,0.17106 -18.585819,0.20819 z"
       id="path188"
       style="stroke-width:0.264583" />
    <path
       fill="#150c0a"
       opacity="1"
       stroke="none"
       d="m 95.061453,120.02591 c 0.125058,0.80783 0.237713,1.72872 0.26901,2.72183 -0.148037,-0.82143 -0.214733,-1.71509 -0.26901,-2.72183 z"
       id="path224"
       style="stroke-width:0.264583" />
    <path
       fill="#dad8d0"
       opacity="1"
       stroke="none"
       d="m 94.476171,129.91429 c 0.0092,-0.29333 0.01865,-0.49769 0.02808,-0.70204 0.05072,8e-4 0.101463,0.002 0.152186,0.003 0,0.41554 0,0.83109 0,1.24663 -0.0352,0.004 -0.07039,0.008 -0.105595,0.0119 -0.02482,-0.15676 -0.04963,-0.31352 -0.07467,-0.55924 z"
       id="path242"
       style="stroke-width:0.264583" />
    <path
       fill="#120706"
       opacity="1"
       stroke="none"
       d="m 94.800262,110.36691 c 6.129468,-0.12298 12.305018,-0.16012 18.602708,-0.22073 1.27651,-0.004 2.43088,0.0157 3.82409,0.0278 1.12585,0.0157 2.01286,0.0389 2.89727,0.13029 0.004,0.15902 0.0104,0.24979 0.0168,0.34058 -7.9662,-0.002 -15.93241,-5.3e-4 -23.898588,-0.0134 -0.465492,-7.9e-4 -0.930822,-0.11642 -1.442307,-0.26447 z"
       id="path468"
       style="stroke-width:0.264583" />
    <path
       fill="#faf9f8"
       opacity="1"
       stroke="none"
       d="m 120.12695,110.236 c -0.88703,-0.0232 -1.77404,-0.0463 -2.78029,-0.0928 -0.0907,-0.10987 -0.0402,-0.1809 0.0903,-0.26844 1.59444,0.009 3.13091,0.0492 4.64307,0.17901 -0.22374,0.11266 -0.42319,0.13615 -0.73232,0.13725 -0.48002,5e-5 -0.85036,0.0225 -1.22072,0.0449 z"
       id="path470"
       style="stroke-width:0.264583" />
    <path
       fill="#d5cfc7"
       opacity="1"
       stroke="none"
       d="m 97.160083,144.32594 c 1.335141,-0.8758 2.674046,-1.75559 4.106727,-2.43874 0.80328,-0.38303 1.25186,-0.73357 1.02024,-1.76407 1.99715,-0.11176 3.88941,-0.019 5.77198,-0.11557 2.78887,-0.14313 5.57083,-0.42059 8.35574,-0.64086 0.10939,0.38457 0.42795,0.88194 0.29192,1.13416 -0.58323,1.08147 -1.30029,2.09079 -2.06768,3.07381 -0.15351,-0.11723 -0.21473,-0.24296 -0.26136,-0.23775 -3.50589,0.39068 -7.01775,0.73983 -10.51152,1.22039 -1.2038,0.16557 -2.40708,0.58666 -3.05107,1.8156 -1.204012,-0.65622 -2.408009,-1.31247 -3.654977,-2.04697 z"
       id="path526"
       style="stroke-width:0.264583" />
    <path
       fill="#3f3025"
       opacity="1"
       stroke="none"
       d="m 116.49774,139.31438 c -2.86788,0.27259 -5.64984,0.55005 -8.43871,0.69318 -1.88257,0.0966 -3.77483,0.004 -5.76633,0.008 -0.70561,-0.18785 -1.30766,-0.38779 -1.96734,-0.65209 0.44037,-0.27555 0.93837,-0.48675 1.62069,-0.71236 0.28146,0.012 0.37859,0.0383 0.49438,0.15755 0.53072,0.0497 1.04281,0.007 1.67738,-0.0581 2.15948,-0.0433 4.19649,-0.065 6.3557,-0.0683 0.87062,0.0226 1.62008,0.003 2.36722,0.0356 2.31113,0.10085 4.04688,-0.94343 5.45584,-2.67763 1.17848,-1.45054 1.43904,-3.16572 1.47383,-4.95406 0.0564,-2.9016 0.11911,-5.8031 0.28239,-8.77248 0.2299,-0.81841 0.35652,-1.56898 0.48597,-2.33632 0.12746,0.61643 0.24768,1.19779 0.37273,1.88795 1.6e-4,0.47038 -0.005,0.83197 -0.10955,1.22796 -0.19991,0.48133 -0.38076,0.92741 -0.38549,1.37535 -0.0273,2.59127 -0.0206,5.18299 -0.009,7.7745 0.004,0.97807 0.0523,1.95598 0.0734,3.02289 -0.81612,1.11463 -1.62526,2.14034 -2.43438,3.16604 -0.48854,0.27672 -0.97707,0.55345 -1.54861,0.8825 z"
       id="path528"
       style="stroke-width:0.264583" />
    <path
       fill="#d0c8c0"
       opacity="1"
       stroke="none"
       d="m 100.88358,146.4425 c 0.57547,-1.29853 1.77875,-1.71962 2.98255,-1.88519 3.49377,-0.48056 7.00563,-0.82971 10.51152,-1.22039 0.0466,-0.005 0.10785,0.12052 0.1809,0.27549 -3.94767,3.81733 -8.5798,4.31517 -13.67497,2.83009 z"
       id="path530"
       style="stroke-width:0.264583" />
    <path
       fill="#30261e"
       opacity="1"
       stroke="none"
       d="m 122.45504,110.54703 c -0.0786,0.44878 -0.14473,0.82889 -0.27993,1.26517 -0.19219,-0.089 -0.31526,-0.23409 -0.44015,-0.47006 -0.0938,-0.43678 -0.18569,-0.78274 -0.2776,-1.12868 0.19944,-0.0235 0.39889,-0.047 0.69899,-0.0792 0.17087,0.10889 0.24105,0.22652 0.29869,0.41281 z"
       id="path640"
       style="stroke-width:0.264583" />
    <path
       fill="#efebe5"
       opacity="1"
       stroke="none"
       d="m 119.94955,122.38135 c -0.06,2.90154 -0.12271,5.80304 -0.17915,8.70464 -0.0348,1.78834 -0.29535,3.50352 -1.47383,4.95406 -1.40896,1.7342 -3.14471,2.77848 -5.45584,2.67763 -0.74714,-0.0326 -1.4966,-0.013 -2.37049,-0.1284 -0.21104,-0.52797 -0.29656,-0.94489 -0.26859,-1.39036 0.73322,-0.077 1.35292,-0.12547 2.0728,-0.1641 1.14945,-0.40519 2.19869,-0.82019 3.33204,-1.24766 1.69749,-1.10182 2.45703,-2.64233 2.46955,-4.56639 0.0159,-2.44442 0.0192,-4.88893 0.0655,-7.43424 0.0425,-0.38725 0.0475,-0.67366 0.0786,-1.0821 0.11659,-2.11281 0.20703,-4.10358 0.29643,-6.07139 -1.93653,-0.37197 -1.97795,-0.37567 -2.13195,1.35264 -0.12777,1.43377 -0.14285,2.87757 -0.29973,4.3397 -0.21396,0.0543 -0.33605,0.0858 -0.539,0.0771 -0.19904,-0.0643 -0.3172,-0.0885 -0.44299,-0.23662 -0.008,-1.93523 -0.008,-3.74646 -0.008,-5.76394 -1.44461,0.0727 -2.94736,0.1483 -4.492,0.21622 -0.0419,-0.008 -0.1118,0.0409 -0.16427,-0.0147 -0.15033,-0.0648 -0.24819,-0.074 -0.4366,-0.0931 -0.21171,-0.002 -0.33291,0.006 -0.51312,-0.0225 -0.10259,-0.0211 -0.14616,-0.006 -0.29717,0.004 -0.3912,-0.0239 -0.67499,-0.0436 -0.95779,-0.12097 0.001,-0.0577 0.002,-0.17315 0.063,-0.21409 0.41903,-0.0661 0.77694,-0.0913 1.55764,-0.14634 -0.96173,-0.9022 -1.22721,-1.69245 -0.98225,-2.92157 0.22434,-1.12571 1.23219,-0.8958 1.47825,-1.60577 1.18102,-0.0175 2.36203,-0.035 3.76972,-0.0566 2.44309,-0.004 4.65951,-0.004 6.78387,-0.004 0,0.72846 0,1.29783 -0.0419,1.9425 -0.0465,0.18847 -0.051,0.30168 -0.0971,0.50381 -0.06,0.4829 -0.0784,0.87687 -0.13675,1.37376 -0.25305,2.44818 -0.46617,4.79347 -0.67927,7.13877 z"
       id="path698"
       style="stroke-width:0.264583" />
    <path
       fill="#e3e2dc"
       opacity="1"
       stroke="none"
       d="m 110.08814,137.22749 c 0.0855,0.4169 0.17106,0.83382 0.25988,1.34348 -2.03372,0.11443 -4.07073,0.13612 -6.31297,0.16032 -0.59189,-0.0251 -0.97854,-0.0528 -1.38917,-0.11813 -0.0976,-0.0185 -0.17125,8e-4 -0.22507,0.0369 0.0198,0.017 10e-4,0.0656 10e-4,0.0656 -0.0971,-0.0264 -0.19427,-0.0528 -0.36695,-0.0745 -2.902038,-1.10048 -4.814404,-2.97761 -5.266508,-6.33515 -0.09216,-3.57583 -0.158049,-6.9268 -0.22392,-10.27776 -0.28335,-3.49024 -0.566681,-6.98048 -0.859541,-10.58816 0.41556,0 0.929868,0 1.561436,0.12995 0.299061,1.7277 0.480896,3.32543 0.66099,5.04346 0.145984,2.746 0.293714,5.3717 0.419079,8.12531 -0.0091,2.27363 -0.02463,4.42001 0.02527,6.56488 0.05389,2.31587 1.222356,3.94711 3.304454,5.08405 0.97967,0.30037 1.88732,0.66185 2.81509,0.72423 1.85983,0.12504 3.73068,0.0865 5.59697,0.11556 m -1.95443,0.40385 c 0.37439,-0.018 0.74877,-0.036 1.12317,-0.0541 -0.002,-0.0349 -0.005,-0.0697 -0.007,-0.10463 -0.65481,0 -1.30961,0 -1.96442,0 0.002,0.0528 0.004,0.10561 0.006,0.15842 0.21283,0 0.42566,0 0.8423,2.6e-4 z"
       id="path700"
       style="stroke-width:0.264583" />
    <path
       fill="#d0c8c0"
       opacity="1"
       stroke="none"
       d="m 97.929029,116.49317 c -0.181838,-1.59774 -0.363673,-3.19547 -0.548384,-4.90524 2.582998,-0.12416 5.168905,-0.13624 7.817465,-0.0315 -0.76134,0.2801 -1.58535,0.4434 -2.24797,0.57473 -1.27484,1.95462 -0.53883,3.19991 1.24186,4.08983 0.0515,0.0257 0.0478,0.16173 -0.021,0.27472 -0.21681,0.045 -0.34269,0.0617 -0.5828,0.0539 -0.82215,-0.0251 -1.5301,-0.0259 -2.3593,-0.0435 -1.18077,-0.0156 -2.240316,-0.0142 -3.299845,-0.0129 z"
       id="path702"
       style="stroke-width:0.264583" />
    <path
       fill="#dad8d0"
       opacity="1"
       stroke="none"
       d="m 104.26189,116.46728 c -0.0221,-0.0846 -0.0184,-0.22061 -0.0699,-0.24632 -1.78068,-0.88992 -2.5167,-2.13521 -1.24186,-4.08983 0.66262,-0.13133 1.48663,-0.29463 2.3429,-0.55567 0.83486,-0.10886 1.63748,-0.11997 2.53162,-0.0184 -1.16071,0.21819 -1.1559,1.60176 -1.77539,2.01144 0.027,1.51023 0.48045,2.66954 2.18696,2.62935 0,0 -7.9e-4,0.11543 -0.0667,0.19396 -0.10711,0.0973 -0.14847,0.116 -0.29408,0.11898 -0.31208,0.0114 -0.5199,0.0386 -0.82581,0.0337 -0.37081,-0.0175 -0.64355,-0.003 -1.0333,-0.002 -0.66081,0.001 -1.20463,0.0156 -1.74889,0.004 -5.3e-4,-0.0265 -0.006,-0.0792 -0.006,-0.0792 z"
       id="path704"
       style="stroke-width:0.264583" />
    <path
       fill="#e5e4df"
       opacity="1"
       stroke="none"
       d="m 108.29737,116.15693 c -1.76765,0.0811 -2.2211,-1.07818 -2.2481,-2.58841 0.61949,-0.40968 0.61467,-1.79325 1.89425,-1.99151 0.74223,-0.1063 1.45713,-0.11981 2.28975,-0.11353 -0.12832,0.72974 -1.13617,0.49983 -1.36051,1.62553 -0.24497,1.22913 0.0205,2.01937 0.98225,2.92158 -0.7807,0.055 -1.13861,0.0802 -1.55764,0.14634 z"
       id="path706"
       style="stroke-width:0.264583" />
    <path
       fill="#261911"
       opacity="1"
       stroke="none"
       d="m 120.9046,113.28974 c 0,-0.56939 0,-1.13877 0,-1.86723 -2.12436,0 -4.34078,0 -6.67534,-0.0185 0.28109,-0.17819 0.6764,-0.46308 1.08025,-0.47577 1.70364,-0.0536 3.40984,-0.0259 5.11509,-0.0287 0.0435,-7e-5 0.087,-0.008 0.13052,-0.0124 -0.0829,-0.0792 -0.1658,-0.15845 -0.33133,-0.23999 -0.0891,-0.0931 -0.0956,-0.18387 -0.0995,-0.34289 0.37298,-0.0907 0.74332,-0.11312 1.22334,-0.11317 0.20161,0.36834 0.29353,0.7143 0.38348,1.2579 -0.27684,0.74537 -0.5517,1.29308 -0.82655,1.84078 z"
       id="path708"
       style="stroke-width:0.264583" />
    <path
       fill="#150c0a"
       opacity="1"
       stroke="none"
       d="m 96.49323,122.11084 c 0.137041,3.26833 0.202928,6.6193 0.259432,10.0932 -0.147325,-0.072 -0.405611,-0.26715 -0.405273,-0.46186 0.0056,-3.18294 0.0438,-6.3658 0.145841,-9.63134 z"
       id="path710"
       style="stroke-width:0.264583" />
    <path
       fill="#150c0a"
       opacity="1"
       stroke="none"
       d="m 95.793709,123.68283 c 1.61e-4,-0.50963 1.61e-4,-0.89866 1.61e-4,-1.28767 0.05622,-2.6e-4 0.112446,-7.9e-4 0.168662,-0.001 0,2.76794 0,5.53586 0,8.30378 -0.05633,0.001 -0.112657,0.003 -0.168984,0.004 0,-2.29947 0,-4.59896 1.61e-4,-7.01907 z"
       id="path712"
       style="stroke-width:0.264583" />
    <path
       fill="#282018"
       opacity="1"
       stroke="none"
       d="m 120.86264,113.36501 c 0.31681,-0.62297 0.59167,-1.17068 0.87033,-1.82521 0.12688,0.0383 0.24995,0.18345 0.42879,0.37482 0.0786,0.091 0.10138,0.13586 0.12849,0.34479 0.005,0.36372 0.007,0.56331 0.008,0.76291 -0.0248,0.14484 -0.0496,0.28967 -0.18978,0.52475 -0.1015,0.32991 -0.0876,0.56958 -0.0737,0.80922 0.0449,0.0588 0.0614,0.12474 0.07,0.24553 -0.006,0.14337 -0.0324,0.23894 -0.049,0.40915 -0.20251,2.22209 -0.41506,4.36958 -0.73384,6.637 -0.20919,0.11609 -0.31216,0.11223 -0.41512,0.10837 -0.12021,-0.58136 -0.24043,-1.16272 -0.36789,-1.77915 -0.12945,0.76734 -0.25607,1.51791 -0.48597,2.33632 0.10986,-2.27746 0.32298,-4.62275 0.63966,-7.11237 0.5097,-0.56645 1.46112,-0.98379 0.11474,-1.42125 0.004,-0.1132 0.009,-0.2264 0.0554,-0.41488 z"
       id="path744"
       style="stroke-width:0.264583" />
    <path
       fill="#282018"
       opacity="1"
       stroke="none"
       d="m 121.19875,124.66595 c 0.0147,0.20031 0.0293,0.40063 -0.0471,0.74658 -0.0501,0.37606 -0.009,0.60647 0.0316,0.8369 -0.0496,2.94348 0.46255,5.92269 -0.6279,8.86585 -0.0958,-0.91635 -0.14371,-1.89426 -0.14806,-2.87233 -0.0115,-2.59151 -0.0182,-5.18323 0.009,-7.7745 0.005,-0.44794 0.18559,-0.89402 0.3953,-1.2667 0.20247,0.53758 0.29473,1.00089 0.38701,1.4642 z"
       id="path1062"
       style="stroke-width:0.264583" />
    <path
       fill="#120b09"
       opacity="1"
       stroke="none"
       d="m 121.2215,124.55373 c -0.11503,-0.35109 -0.20728,-0.8144 -0.30936,-1.38638 -0.005,-0.47024 -5.3e-4,-0.83183 -5.3e-4,-1.30221 0.0981,-0.10494 0.2011,-0.10108 0.38113,-0.0993 0.0352,0.89051 -0.007,1.78308 -0.0711,2.78786 z"
       id="path1064"
       style="stroke-width:0.264583" />
    <path
       fill="#30261e"
       opacity="1"
       stroke="none"
       d="m 102.66987,138.65085 c 0.38664,0.0276 0.77329,0.0553 1.24269,0.10203 -0.42932,0.0622 -0.94141,0.10533 -1.47213,0.0556 -0.0187,-0.0928 1.8e-4,-0.14149 0.0466,-0.13843 0.0919,-0.004 0.13736,-0.0118 0.18287,-0.0192 z"
       id="path1066"
       style="stroke-width:0.264583" />
    <path
       fill="#120b09"
       opacity="1"
       stroke="none"
       d="m 121.2023,126.15199 c -0.0598,-0.13299 -0.10072,-0.3634 -0.0773,-0.64182 0.075,0.14944 0.0856,0.34691 0.0773,0.64182 z"
       id="path1068"
       style="stroke-width:0.264583" />
    <path
       fill="#261911"
       opacity="1"
       stroke="none"
       d="m 122.08056,114.26867 c -0.0598,-0.15202 -0.0737,-0.39169 10e-4,-0.65269 0.0741,0.17414 0.0594,0.3696 -10e-4,0.65269 z"
       id="path1138"
       style="stroke-width:0.264583" />
    <path
       fill="#d09052"
       opacity="1"
       stroke="none"
       d="m 118.19402,122.82647 c -0.005,0.2864 -0.01,0.57281 -0.13437,1.00612 -0.18153,1.97609 -0.26315,3.8049 -0.29974,5.6346 -0.0317,1.58591 -0.87183,2.62228 -2.38117,3.10795 -2.4597,0.79151 -4.54356,-0.15181 -6.51415,-1.28438 0.67586,-0.26106 1.25345,-0.51129 1.92117,-0.77087 1.58932,-0.46551 2.43447,-1.57382 3.0876,-2.99977 0.27919,-0.63326 0.48735,-1.21116 0.74241,-1.88895 0.10104,-0.26579 0.19928,-0.43091 0.2023,-0.59777 0.0214,-1.18695 0.53018,-2.66128 -1.54821,-2.64562 -0.21682,0.002 -0.47698,-0.22893 -0.64704,-0.41554 -1.37805,-1.51228 -2.31333,-3.19669 -1.97762,-5.34641 1.50274,-0.0756 3.0055,-0.15122 4.45011,-0.22391 0,2.01748 0,3.82871 0.0334,5.82554 0.1883,0.19549 0.34321,0.20536 0.49813,0.21521 0.12207,-0.0315 0.24415,-0.063 0.52847,-0.0497 0.78773,0.17439 1.41322,0.30392 2.03872,0.43347 z"
       id="path1188"
       style="stroke-width:0.264583" />
    <path
       fill="#ab703e"
       opacity="1"
       stroke="none"
       d="m 97.927285,116.61346 c 1.061273,-0.1216 2.120815,-0.12291 3.300075,-0.0687 0.11973,0.0555 0.11352,0.13276 0.007,0.16635 -0.21157,0.33842 -0.41371,0.64525 -0.40742,0.94778 0.054,2.60378 0.14566,5.20679 0.16176,7.88059 -0.737,1.48471 0.0757,2.79815 0.25228,4.14334 0.36499,2.7815 2.71816,4.15958 4.42284,5.99485 0.97625,1.05104 2.15819,1.26533 3.52406,1.18152 0.98819,-0.0607 1.99011,0.10248 2.98591,0.16583 -0.6197,0.0485 -1.2394,0.0969 -1.97262,0.17392 -1.9798,-5.2e-4 -3.85065,0.038 -5.71049,-0.087 -0.92777,-0.0624 -1.83542,-0.42386 -2.74506,-0.78843 -0.0842,-0.63104 -0.10378,-1.15187 -0.28365,-1.6097 -0.27015,-0.68763 -0.74764,-1.30084 -0.97022,-1.99887 -0.787662,-2.47013 -2.077117,-4.82532 -1.819219,-7.55371 0.0163,-0.17231 -0.197517,-0.3664 -0.304295,-0.55035 -0.147714,-2.62571 -0.295444,-5.25141 -0.441428,-7.99741 z"
       id="path1190"
       style="stroke-width:0.264583" />
    <path
       fill="#be8a4e"
       opacity="1"
       stroke="none"
       d="m 108.76632,131.3016 c 2.06886,1.12173 4.15272,2.06505 6.61242,1.27354 1.50934,-0.48567 2.34945,-1.52204 2.38117,-3.10795 0.0366,-1.8297 0.11821,-3.65851 0.26219,-5.53377 0.0731,2.39842 0.0699,4.84293 0.0539,7.28735 -0.0125,1.92406 -0.77206,3.46457 -2.59089,4.55237 -0.76522,-0.088 -1.32392,-0.24036 -1.88497,-0.24961 -2.51509,-0.0415 -4.846,-0.64935 -6.92443,-2.11002 -0.92961,-0.65331 -1.97433,-1.18922 -2.76249,-1.98163 -0.5567,-0.55969 -1.64307,-1.08583 -0.9735,-2.18123 0.82443,0.5651 1.59919,1.05282 2.44662,1.60984 1.17508,0.19322 2.27752,0.31716 3.37994,0.44111 z"
       id="path1192"
       style="stroke-width:0.264583" />
    <path
       fill="#b97a42"
       opacity="1"
       stroke="none"
       d="m 102.89008,129.17327 c -0.61989,1.17278 0.46648,1.69892 1.02318,2.25861 0.78816,0.79241 1.83288,1.32832 2.76249,1.98163 2.07843,1.46067 4.40934,2.06848 6.92443,2.11002 0.56105,0.009 1.11975,0.16162 1.80086,0.26209 -0.9279,0.42901 -1.97714,0.84401 -3.12659,1.2492 -1.09599,-0.0732 -2.0979,-0.23631 -3.0861,-0.17565 -1.36587,0.0838 -2.54781,-0.13048 -3.52405,-1.18152 -1.70468,-1.83527 -4.05785,-3.21335 -4.42284,-5.99485 -0.17653,-1.34519 -0.98929,-2.65863 -0.23857,-4.04523 0.68109,1.19694 1.28414,2.36631 1.88719,3.5357 z"
       id="path1194"
       style="stroke-width:0.264583" />
    <path
       fill="#b97a42"
       opacity="1"
       stroke="none"
       d="m 110.6033,116.61814 c -0.29381,2.15741 0.64147,3.84182 2.01952,5.3541 0.17006,0.18661 0.43022,0.41719 0.64704,0.41554 2.07839,-0.0157 1.56962,1.45867 1.54821,2.64562 -0.003,0.16686 -0.10126,0.33198 -0.30583,0.59569 -3.52635,-0.43386 -5.74804,-2.81692 -6.03142,-6.12858 -0.0854,-0.99829 -0.32963,-1.98302 -0.5011,-2.97397 0.0414,-0.0187 0.0827,-0.0374 0.18885,-0.077 0.34859,-0.001 0.63237,0.0185 1.04325,0.0804 0.12706,0.0423 0.24181,0.0722 0.24181,0.0722 0,0 0.0947,-0.0785 0.0947,-0.0785 0.12118,-0.008 0.24238,-0.0154 0.50812,0.0372 0.2414,0.0729 0.33821,0.0856 0.43504,0.0982 0,2e-5 0.0699,-0.0486 0.1118,-0.0409 z"
       id="path1196"
       style="stroke-width:0.264583" />
    <path
       fill="#d6ad81"
       opacity="1"
       stroke="none"
       d="m 118.22018,122.70443 c -0.65165,-0.008 -1.27715,-0.13704 -1.973,-0.3342 -0.005,-1.50698 0.01,-2.95078 0.1375,-4.38455 0.154,-1.72831 0.19542,-1.72461 2.13195,-1.35264 -0.0894,1.96781 -0.17984,3.95858 -0.29645,6.07139 z"
       id="path1198"
       style="stroke-width:0.264583" />
    <path
       fill="#261911"
       opacity="1"
       stroke="none"
       d="m 120.76557,113.86882 c 1.388,0.34853 0.43658,0.76587 -0.0332,1.22942 -0.0452,-0.35255 -0.0268,-0.74651 0.0332,-1.22942 z"
       id="path1200"
       style="stroke-width:0.264583" />
    <path
       fill="#d6ad81"
       opacity="1"
       stroke="none"
       d="m 115.54595,122.40248 c -0.074,0.0303 -0.22895,0.0205 -0.40961,-0.051 0.0924,-0.0375 0.21057,-0.0133 0.40961,0.051 z"
       id="path1202"
       style="stroke-width:0.264583" />
    <path
       fill="#d09052"
       opacity="1"
       stroke="none"
       d="m 109.48932,116.48795 c 0.059,0.0357 -0.0357,0.11423 -0.0357,0.11423 0,0 -0.11475,-0.0299 -0.1344,-0.0679 0.0239,-0.0527 0.0675,-0.0674 0.17009,-0.0463 z"
       id="path1204"
       style="stroke-width:0.264583" />
    <path
       fill="#d09052"
       opacity="1"
       stroke="none"
       d="m 110.43904,116.60348 c -0.0444,0.0429 -0.14118,0.0303 -0.29204,-0.0328 0.0438,-0.0412 0.14171,-0.032 0.29204,0.0328 z"
       id="path1206"
       style="stroke-width:0.264583" />
    <path
       fill="#9e6233"
       opacity="1"
       stroke="none"
       d="m 98.346364,124.73877 c 0.129127,0.056 0.342937,0.25014 0.326644,0.42245 -0.257897,2.72839 1.031557,5.08358 1.819222,7.55371 0.22258,0.69803 0.70007,1.31124 0.97022,1.99887 0.17987,0.45783 0.19944,0.97866 0.22073,1.53551 -2.089202,-0.99855 -3.257671,-2.62979 -3.311559,-4.94566 -0.0499,-2.14487 -0.03433,-4.29125 -0.02527,-6.56488 z"
       id="path1208"
       style="stroke-width:0.264583" />
    <path
       fill="#efebe5"
       opacity="1"
       stroke="none"
       d="m 108.03179,137.6312 c -0.31473,-1.3e-4 -0.52755,-1.3e-4 -0.74038,-1.3e-4 -0.002,-0.0528 -0.004,-0.10562 -0.006,-0.15842 0.6548,0 1.30961,0 1.96441,0 0.002,0.0349 0.005,0.0697 0.007,0.10463 -0.37439,0.018 -0.74877,0.036 -1.22508,0.0539 z"
       id="path1210"
       style="stroke-width:0.264583" />
    <path
       fill="#efebe5"
       opacity="1"
       stroke="none"
       d="m 102.64588,138.61316 c -0.0215,0.0451 -0.067,0.0525 -0.17868,0.0399 0.007,-0.0392 0.0811,-0.0584 0.17868,-0.0399 z"
       id="path1212"
       style="stroke-width:0.264583" />
    <path
       fill="#93582c"
       opacity="1"
       stroke="none"
       d="m 108.86459,131.29076 c -1.20069,-0.11311 -2.30313,-0.23705 -3.47715,-0.53663 -0.68421,-1.85698 -1.5891,-3.49534 -1.84372,-5.22923 -0.42478,-2.89262 -0.43345,-5.84634 -0.53542,-8.77947 0.28595,-0.0606 0.49003,-0.116 0.6941,-0.17144 0.12588,-0.0166 0.25176,-0.0333 0.46858,-0.0783 0.0909,-0.0284 0.0961,0.0243 0.16446,0.10471 0.13003,0.33992 0.2572,0.60299 0.24336,0.8584 -0.19047,3.51498 -0.0934,7.00004 2.36113,9.82456 1.0743,1.23629 2.49326,2.1731 3.75573,3.24589 -0.57762,0.25023 -1.15521,0.50046 -1.83107,0.76152 z"
       id="path1214"
       style="stroke-width:0.264583" />
    <path
       fill="#9e6233"
       opacity="1"
       stroke="none"
       d="m 103.58818,116.54962 c -0.0898,0.0798 -0.29393,0.13525 -0.69245,0.19232 -0.64791,-0.0204 -1.10138,-0.0424 -1.55485,-0.0644 0,0 0.006,-0.0772 0.008,-0.11591 0.70947,-0.0379 1.41742,-0.0371 2.23958,-0.012 z"
       id="path1216"
       style="stroke-width:0.264583" />
    <path
       fill="#9e6233"
       opacity="1"
       stroke="none"
       d="m 110.78576,130.51989 c -1.35257,-1.06344 -2.77153,-2.00025 -3.84583,-3.23654 -2.4545,-2.82452 -2.5516,-6.30958 -2.36113,-9.82456 0.0138,-0.25541 -0.11333,-0.51848 -0.24291,-0.83193 0.47586,-0.0683 1.01967,-0.0827 1.73029,-0.0374 0.29815,0.094 0.42951,0.12833 0.56476,0.27224 0.006,1.31907 -0.008,2.52888 0.0145,3.73799 0.0636,3.42269 3.11368,7.54229 7.15691,6.97579 -0.58209,1.37062 -1.42724,2.47893 -3.01657,2.94444 z"
       id="path1218"
       style="stroke-width:0.264583" />
    <path
       fill="#ab703e"
       opacity="1"
       stroke="none"
       d="m 113.87336,127.52012 c -4.11427,0.62183 -7.16433,-3.49777 -7.22795,-6.92046 -0.0225,-1.20911 -0.008,-2.41892 0.0556,-3.74789 0.19304,-0.17139 0.31989,-0.22329 0.44674,-0.2752 0.20784,-0.0272 0.41566,-0.0543 0.72773,-0.0657 0.27571,1.00667 0.51992,1.9914 0.60534,2.98969 0.28338,3.31166 2.50507,5.69472 5.98455,6.22844 -0.10466,0.58001 -0.31282,1.15791 -0.59201,1.79117 z"
       id="path1220"
       style="stroke-width:0.264583" />
    <path
       fill="#b97a42"
       opacity="1"
       stroke="none"
       d="m 107.04968,116.5445 c -0.0288,0.084 -0.15563,0.13588 -0.35257,0.19768 -0.20142,-0.0244 -0.33278,-0.0587 -0.51395,-0.13962 0.22297,-0.0611 0.49571,-0.0756 0.86652,-0.0581 z"
       id="path1222"
       style="stroke-width:0.264583" />
    <path
       fill="#7e4923"
       opacity="1"
       stroke="none"
       d="m 101.23483,116.71109 c 0.55952,-0.0116 1.01299,0.0104 1.57903,0.036 0.29641,2.9315 0.30508,5.88522 0.72986,8.77784 0.25462,1.73389 1.15951,3.37225 1.77105,5.15992 -0.77582,-0.38135 -1.55058,-0.86907 -2.37502,-1.43417 -0.65272,-1.24677 -1.25577,-2.41614 -1.87256,-3.68364 -0.0941,-2.70135 -0.18574,-5.30436 -0.23977,-7.90814 -0.006,-0.30253 0.19585,-0.60936 0.40741,-0.94778 z"
       id="path1630"
       style="stroke-width:0.264583" />
  </g>
</svg>
