<?xml version="1.0" encoding="UTF-8" standalone="no"?>
<!-- Created with Inkscape (http://www.inkscape.org/) -->

<svg
   width="27.183964mm"
   height="34.013908mm"
   viewBox="0 0 27.183964 34.013908"
   version="1.1"
   id="svg3073"
   inkscape:version="1.2.2 (732a01da63, 2022-12-09)"
   sodipodi:docname="bg_button4.svg"
   xmlns:inkscape="http://www.inkscape.org/namespaces/inkscape"
   xmlns:sodipodi="http://sodipodi.sourceforge.net/DTD/sodipodi-0.dtd"
   xmlns="http://www.w3.org/2000/svg"
   xmlns:svg="http://www.w3.org/2000/svg">
  <sodipodi:namedview
     id="namedview3075"
     pagecolor="#ffffff"
     bordercolor="#000000"
     borderopacity="0.25"
     inkscape:showpageshadow="2"
     inkscape:pageopacity="0.0"
     inkscape:pagecheckerboard="0"
     inkscape:deskcolor="#d1d1d1"
     inkscape:document-units="mm"
     showgrid="false"
     inkscape:zoom="3.9710672"
     inkscape:cx="144.92326"
     inkscape:cy="66.73269"
     inkscape:window-width="2880"
     inkscape:window-height="1526"
     inkscape:window-x="5749"
     inkscape:window-y="-11"
     inkscape:window-maximized="1"
     inkscape:current-layer="layer1" />
  <defs
     id="defs3070" />
  <g
     inkscape:label="Ebene 1"
     inkscape:groupmode="layer"
     id="layer1"
     transform="translate(-26.36609,-255.91644)">
    <path
       fill="#18613f"
       opacity="1"
       stroke="none"
       d="m 53.549546,256.37791 c -0.105469,0.0175 -0.130175,-0.05 -0.06083,-0.16352 0.04865,0.0166 0.0645,0.0581 0.06083,0.16352 z"
       id="path268"
       style="stroke-width:0.264583" />
    <path
       fill="#143823"
       opacity="1"
       stroke="none"
       d="m 26.657089,257.50565 c 0.27372,-5.2e-4 0.547437,-10e-4 0.948981,0.11447 0.218433,2.15398 0.309031,4.19157 0.355294,6.25566 -0.0126,0.10125 0.01913,0.176 0.05616,0.36977 0.119121,1.11447 0.232955,2.10995 0.327232,3.13699 -0.02635,0.0907 -0.0019,0.1309 0.04032,0.23238 0.01167,0.12811 0.03673,0.1761 0.03517,0.28509 -0.03573,0.10449 -0.04482,0.14793 -0.132828,0.22325 -1.123466,0.7823 -0.847143,1.83528 -0.817251,2.88709 0.02732,0.9613 -0.180226,1.92928 -0.351017,2.89569 -0.111257,0.002 -0.155763,0.002 -0.267158,-0.0586 -0.06688,-0.49902 -0.06688,-0.93701 -0.06688,-1.37498 -0.990806,0.41854 0.08265,-1.33072 0.110909,-0.005 -0.474386,-7.11313 -0.239376,-8.77133 -0.505886,-11.57985 0.08897,5.3e-4 0.272167,0.23656 0.266912,0.002 v -3.38342"
       id="path276"
       style="stroke-width:0.264583"
       sodipodi:nodetypes="ccccccccsccccccc" />
    <path
       fill="#3c281e"
       opacity="1"
       stroke="none"
       d="m 42.516003,256.18886 c 1.774531,-0.002 3.54906,-0.005 5.447691,-0.0133 1.528646,0.006 2.933192,0.0174 4.456427,0.0351 0.01164,0.25596 -0.09541,0.50583 -0.354682,0.76642 -0.152212,0.0107 -0.272772,0.06 -0.396512,0.0496 -2.864956,0.0201 -5.606169,0.0505 -8.414787,0.051 -0.110577,-0.0535 -0.15375,-0.0771 -0.277519,-0.17553 -4.075176,-0.11497 -8.069755,-0.15533 -12.064344,-0.19442 -0.417618,-0.004 -0.835308,-5.3e-4 -1.252968,-5.3e-4 3.841945,-0.26441 7.661113,-0.25586 11.48013,-0.27563 0.459258,-0.002 0.917726,-0.1581 1.376564,-0.24275 z"
       id="path542"
       style="stroke-width:0.264583" />
    <path
       fill="#0d2c1b"
       opacity="1"
       stroke="none"
       d="m 42.269506,286.09826 c -1.064474,-0.003 -2.128954,-0.006 -3.31521,-0.005 -1.265047,-1.6e-4 -2.426677,-0.13703 -3.548047,0.0177 -3.002298,0.41443 -7.246054,-2.88207 -7.686643,-6.81063 -0.155633,-1.3877 -0.256516,-2.78158 -0.456713,-4.36007 -0.07521,-0.47008 -0.0761,-0.75271 -0.07699,-1.03534 0.104039,-0.96502 0.311584,-1.933 0.284265,-2.8943 -0.02989,-1.05181 -0.306215,-2.10479 0.84373,-2.76767 0.484955,3.76198 0.746702,7.45374 1.284422,11.10489 0.374759,2.54465 1.77209,4.46262 4.595625,5.12201 4.00504,0.0688 7.88852,0.11483 11.727571,0.24896 -1.024183,0.21075 -2.003935,0.3334 -2.983685,0.45603 -0.01675,0.10692 -0.0335,0.21385 -0.05025,0.32077 0.355227,0.10506 0.705911,0.23072 1.066779,0.31018 0.487817,0.10743 0.983453,0.17939 1.477473,0.27071 0.0019,0.004 0.0066,0.0118 -0.0796,0.0103 -0.200932,0.002 -0.315674,0.005 -0.551119,0.004 -0.92434,-7.9e-4 -1.727972,0.004 -2.53161,0.008 m -4.308721,-1.07356 c -0.480242,0 -0.960488,0 -1.44073,0 0.003,0.0652 0.006,0.13044 0.009,0.19564 1.722652,0 3.445301,0 5.16795,0 7.94e-4,-0.0652 0.0016,-0.13049 0.0021,-0.19575 -1.163735,0 -2.327479,0 -3.738377,1.1e-4 z"
       id="path548"
       style="stroke-width:0.264583" />
    <path
       fill="#1b3f29"
       opacity="1"
       stroke="none"
       d="m 47.095321,287.77106 c -1.704491,-0.51044 -3.05276,0.49646 -4.345681,1.11238 -2.748343,1.30927 -5.395362,1.44193 -8.089254,0.1056 -1.203415,-0.59695 -1.227087,-1.69504 -0.851342,-2.94706 4.598459,-0.18818 9.193252,-0.27091 13.859373,-0.26813 -0.07453,0.64516 -0.220388,1.2048 -0.366245,1.76444 -0.03036,0.0823 -0.08058,0.1498 -0.206851,0.23277 z"
       id="path552"
       style="stroke-width:0.264583" />
    <path
       fill="#18422a"
       opacity="1"
       stroke="none"
       d="m 46.076784,286.08266 c -0.224269,0.001 -0.344874,-0.002 -0.556083,-0.008 -0.582888,-0.0902 -1.078524,-0.16215 -1.566341,-0.26957 -0.360868,-0.0795 -0.711552,-0.20512 -1.066779,-0.31019 0.01675,-0.10692 0.0335,-0.21384 0.05025,-0.32077 0.97975,-0.12263 1.959502,-0.24528 3.084801,-0.49425 2.652705,-0.49525 4.703818,-2.70322 4.97104,-5.41039 0.158578,-1.60652 0.213947,-3.22324 0.397343,-4.85122 0.274934,-0.2688 0.468251,-0.52172 0.736679,-0.69402 0.113358,1.61478 0.151606,3.14889 0.189855,4.68302 -0.08443,0.23865 -0.226851,0.47305 -0.244684,0.71657 -0.318847,4.35242 -1.668434,5.95172 -5.99608,6.95838 z"
       id="path656"
       style="stroke-width:0.264583" />
    <path
       fill="#11432b"
       opacity="1"
       stroke="none"
       d="m 52.38631,278.47427 c -0.107011,-1.60069 -0.145259,-3.1348 -0.260183,-4.81676 -0.0784,-0.19259 -0.08013,-0.23736 -0.08025,-0.34549 0.0016,-0.0634 -0.003,-0.19001 5.3e-4,-0.29039 0.0053,-0.30125 0.007,-0.50213 0.08113,-0.77679 0.108525,-0.64111 0.144651,-1.20845 0.181595,-1.889 -0.08374,-2.47 -0.187812,-4.82645 -0.228733,-7.18401 -0.0052,-0.30205 0.318064,-0.60981 0.48917,-0.91493 0,5.79354 0,11.58708 0,17.38062 0.04558,0.009 0.09115,0.0181 0.136734,0.0271 -0.08376,-0.37461 -0.16751,-0.74921 -0.320027,-1.19037 z"
       id="path658"
       style="stroke-width:0.264583" />
    <path
       fill="#1f3324"
       opacity="1"
       stroke="none"
       d="m 52.055182,272.31861 c -0.0019,0.20089 -0.0035,0.40177 -0.04769,0.7265 -0.01606,0.19264 0.01037,0.26145 0.03678,0.33026 0.0019,0.0448 0.0035,0.0896 0.0067,0.20149 -0.191757,0.32012 -0.385074,0.57305 -0.676965,0.72766 -0.02373,-1.74185 0.05112,-3.38537 0.147859,-5.13388 0.01971,-0.60757 0.01754,-1.11016 0.04734,-1.72118 0.03055,-0.55704 0.02915,-1.00562 0.06328,-1.56095 0.09766,-1.98389 0.159797,-3.86107 0.221932,-5.73823 0.118192,0.0746 0.236387,0.14931 0.419772,0.25097 0.135224,0.56912 0.205248,1.11123 0.285319,1.75451 -0.161065,0.40626 -0.484373,0.71402 -0.479129,1.01607 0.04092,2.35756 0.144989,4.71401 0.157771,7.24473 -0.108865,0.74997 -0.145946,1.32602 -0.183022,1.90205 z"
       id="path660"
       style="stroke-width:0.264583" />
    <path
       fill="#eee5d9"
       opacity="1"
       stroke="none"
       d="m 51.537302,267.55788 c 0.0021,0.5026 0.0043,1.00519 -0.121864,1.60981 -0.313794,0.51351 -0.454481,0.95431 -0.698781,1.32724 -0.195818,0.29893 -0.51739,0.51547 -0.7986,0.64865 0.0021,-0.92872 0.01966,-1.7375 0.05686,-2.65355 0.09023,-1.97347 0.160819,-3.83969 0.276537,-5.80549 0.10282,-1.44237 0.160512,-2.78514 0.217389,-4.23886 0.05821,-0.86343 -0.404233,-0.95672 -1.005459,-0.95062 -1.667687,0.0169 -3.336258,0.0298 -5.003077,-0.0119 -0.382474,-0.01 -0.759325,-0.24435 -1.138759,-0.3755 2.741213,-0.0304 5.482426,-0.0609 8.37085,-0.0349 0.19543,0.1077 0.252246,0.14626 0.317662,0.17216 -0.06853,0.89544 -0.137044,1.7909 -0.180578,2.79583 -0.03714,1.98665 -0.09927,3.86383 -0.292992,5.80949 -0.684718,-0.20993 -1.016799,-0.15018 -1.073809,0.57329 -0.0644,0.81728 0.189246,1.25469 1.074624,1.13431 z"
       id="path760"
       style="stroke-width:0.264583" />
    <path
       fill="#c8c4bc"
       opacity="1"
       stroke="none"
       d="m 52.025471,257.18828 c -0.08083,0.0308 -0.137646,-0.008 -0.20933,-0.1051 -0.02347,-0.0461 0.09709,-0.0954 0.161105,-0.0822 0.06402,0.0132 0.06364,0.13066 0.04823,0.18734 z"
       id="path762"
       style="stroke-width:0.264583" />
    <path
       fill="#261911"
       opacity="1"
       stroke="none"
       d="m 36.314995,255.92799 c 1.894835,0.0823 3.666204,0.16504 5.561298,0.23938 0.238458,-8e-4 0.353192,0.007 0.553818,0.018 -0.372946,0.0881 -0.831414,0.24386 -1.290672,0.24623 -3.819017,0.0198 -7.638185,0.0112 -11.48013,0.27563 0.41766,0 0.83535,-0.004 1.252968,5.3e-4 3.994589,0.0391 7.989168,0.0795 11.942726,0.21955 -1.8937,0.13025 -3.746371,0.16042 -5.695583,0.15696 -0.299476,-0.0214 -0.502427,-0.009 -0.827076,-0.0248 -2.519876,0.008 -4.918046,0.0432 -7.415644,0.0353 -0.45947,-0.055 -0.819518,-0.0665 -1.179563,-0.078 -0.09677,-0.92104 0.436221,-1.10662 1.213826,-1.10017 2.413389,0.02 4.82703,0.0101 7.364032,0.0114 z"
       id="path784"
       style="stroke-width:0.264583" />
    <path
       fill="#dad8d0"
       opacity="1"
       stroke="none"
       d="m 27.733457,257.0987 c 0.363725,-0.0704 0.723773,-0.0589 1.191733,0.10899 0.418973,1.82324 -0.572584,3.6989 0.636596,5.02096 -0.274963,0.66641 -0.526521,1.27609 -0.855681,1.96589 -0.165666,1.10555 -0.25373,2.13099 -0.3418,3.15643 -0.113829,-0.99547 -0.227663,-1.99095 -0.324667,-3.17529 -9.8e-5,-0.23473 -0.01701,-0.28056 -0.03394,-0.32639 -0.0906,-2.0376 -0.181197,-4.07519 -0.296987,-6.22872 -0.0098,-0.22392 0.0056,-0.33192 0.02474,-0.52187 z"
       id="path786"
       style="stroke-width:0.264583" />
    <path
       fill="#d5cfc7"
       opacity="1"
       stroke="none"
       d="m 28.344753,267.38254 c 0.107622,-1.05701 0.195686,-2.08245 0.455086,-3.18721 0.296505,-0.0737 0.421679,-0.068 0.539811,0.0331 -0.0469,0.81652 -0.08677,1.5376 -0.13094,2.33661 0.1857,0 0.488423,0 0.736026,0 0.321831,3.40585 0.611478,6.77213 0.964933,10.13173 0.397695,3.78013 2.302774,6.84122 6.96991,6.42097 0.83529,0.0415 1.55302,0.0595 2.268474,0.18694 0.05322,1.0014 -0.575982,0.9008 -1.150842,0.92275 -1.642004,0.0627 -3.28327,0.14491 -4.924827,0.21943 -2.701975,-0.63668 -4.099306,-2.55465 -4.474065,-5.0993 -0.53772,-3.65115 -0.799467,-7.34291 -1.205515,-11.13675 -0.01738,-0.16288 -0.0083,-0.20632 0.07754,-0.34249 0.0272,-0.17299 -0.02233,-0.25325 -0.07185,-0.33351 -0.05567,-0.0214 -0.0801,-0.0616 -0.05374,-0.15228 z"
       id="path794"
       style="stroke-width:0.264583" />
    <path
       fill="#0d2c1b"
       opacity="1"
       stroke="none"
       d="m 26.667014,262.53208 c 0.08217,0.0282 0.231624,0.0473 0.236786,0.0858 0.180324,1.34509 0.347065,2.69202 0.515729,4.03867 -0.204846,0.0123 -0.409692,0.0245 -0.614535,0.0368 0,-0.72338 0,-1.44679 -0.07022,-2.356 -0.0694,-0.72567 -0.06858,-1.26548 -0.06776,-1.8053 z"
       id="path796"
       style="stroke-width:0.264583" />
    <path
       fill="#1b4830"
       opacity="1"
       stroke="none"
       d="m 26.592838,262.60053 c 0.07336,0.47137 0.07254,1.01118 0.07618,1.66658 -0.04715,-0.45565 -0.09875,-1.02687 -0.07618,-1.66658 z"
       id="path802"
       style="stroke-width:0.264583" />
    <path
       fill="#dad8d0"
       opacity="1"
       stroke="none"
       d="m 28.38507,267.61492 c 0.06294,1.6e-4 0.112472,0.0804 0.111903,0.19238 -0.07517,-0.0163 -0.10024,-0.0643 -0.111903,-0.19238 z"
       id="path804"
       style="stroke-width:0.264583" />
    <path
       fill="#0d2c1b"
       opacity="1"
       stroke="none"
       d="m 27.961364,263.87578 c 0.06126,0.0193 0.07818,0.0652 0.07298,0.1809 -0.05385,-0.005 -0.08558,-0.0796 -0.07298,-0.1809 z"
       id="path806"
       style="stroke-width:0.264583" />
    <path
       fill="#eeece9"
       opacity="1"
       stroke="none"
       d="m 37.255954,257.11792 c 1.852678,-0.0302 3.705349,-0.0603 5.679643,-0.11562 0.164793,-0.002 0.207966,0.0219 0.318543,0.0754 0.446839,0.16112 0.82369,0.39591 1.206164,0.40547 1.666819,0.0416 3.33539,0.0288 5.003077,0.0119 0.601226,-0.006 1.06367,0.0872 0.923738,1.01418 -0.993992,0.30974 -1.904178,0.52205 -2.821046,0.55651 -0.769588,0.0289 -1.126453,0.24362 -1.079984,1.05909 0.0496,0.87049 0.01672,1.74566 -0.09095,2.63666 -0.835131,0.11074 -1.559462,0.20364 -2.346838,0.28384 -0.06305,-0.0127 -0.191482,-0.003 -0.235797,-0.0492 -0.19214,-0.0172 -0.339963,0.0116 -0.560549,0.0314 -0.12093,-8e-4 -0.169103,0.007 -0.274526,10e-4 -0.05724,-0.0143 -0.1709,0.0175 -0.287721,10e-4 -0.662136,0.006 -1.207455,0.0291 -1.863506,0.0223 -0.566081,-0.0119 -1.021439,0.006 -1.486987,-0.003 -0.01019,-0.0258 0.03731,-0.0544 0.03708,-0.14967 0.412197,-1.05044 0.96424,-1.97144 1.208111,-2.96786 0.514387,-2.10174 0.205587,-2.42451 -1.899811,-2.42984 -0.216932,-5.3e-4 -0.433859,-5.3e-4 -0.732941,-0.002 -0.286668,-0.12832 -0.491186,-0.25556 -0.695703,-0.38278 m 4.167809,0.5126 c 0.107693,0.0189 0.215387,0.0378 0.323075,0.0567 -0.08184,-0.0451 -0.163677,-0.0902 -0.323075,-0.0567 z"
       id="path1070"
       style="stroke-width:0.264583" />
    <path
       fill="#dfdfd6"
       opacity="1"
       stroke="none"
       d="m 34.193944,284.46958 c 1.519997,-0.0972 3.161263,-0.17945 4.803267,-0.24214 0.57486,-0.0219 1.204066,0.0786 1.262549,-0.94293 0.566523,-0.15133 1.019067,-0.17313 1.589064,-0.17137 0.688713,0.0137 1.261155,0.0239 1.831044,-0.01 2.941928,-0.17238 4.363759,-1.25614 5.218456,-4.10573 0.312441,-1.04168 0.43162,-2.14136 0.69837,-3.23457 0.09058,-0.0461 0.151231,-0.0911 0.148506,-0.0953 -0.04117,-0.0639 -0.09068,-0.12255 -0.150064,-0.29198 0.02752,-0.47435 0.06687,-0.8391 0.204864,-1.22989 0.07246,-0.73103 0.04629,-1.43602 0.02994,-2.23462 0.04107,-0.2784 0.07232,-0.46319 0.103558,-0.64802 0.265769,-0.2531 0.587341,-0.46964 0.783159,-0.76857 0.2443,-0.37293 0.384987,-0.81373 0.676886,-1.22226 0.03163,1.64647 -0.04321,3.28999 -0.1011,5.04769 -0.08483,1.72633 -0.140194,3.34304 -0.298772,4.94956 -0.267222,2.70717 -2.318335,4.91514 -4.926606,5.32229 -3.984601,-0.008 -7.868081,-0.0539 -11.873121,-0.12264 z"
       id="path1072"
       style="stroke-width:0.264583" />
    <path
       fill="#18422a"
       opacity="1"
       stroke="none"
       d="m 38.084364,285.02465 c 1.28732,-7e-5 2.451063,-7e-5 3.614798,-7e-5 -7.93e-4,0.0653 -0.0013,0.1305 -0.0021,0.19576 -1.722649,0 -3.445299,0 -5.16795,0 -0.003,-0.0652 -0.006,-0.13044 -0.009,-0.19565 0.480243,0 0.960488,0 1.56431,-4e-5 z"
       id="path1074"
       style="stroke-width:0.264583" />
    <path
       fill="#18613f"
       opacity="1"
       stroke="none"
       d="m 45.352235,286.0865 c -0.0601,0.0402 -0.206391,0.079 -0.391546,0.0632 0.07587,-0.0579 0.190614,-0.0613 0.391546,-0.0632 z"
       id="path1076"
       style="stroke-width:0.264583" />
    <path
       fill="#18422a"
       opacity="1"
       stroke="none"
       d="m 52.127572,272.24484 c -0.03531,-0.50226 0.0019,-1.07831 0.109812,-1.71506 0.03484,0.50661 -0.0013,1.07395 -0.109812,1.71506 z"
       id="path1156"
       style="stroke-width:0.264583" />
    <path
       fill="#18422a"
       opacity="1"
       stroke="none"
       d="m 52.045879,273.31202 c -0.02802,-0.005 -0.05444,-0.0743 -0.04191,-0.16654 0.03894,-0.0235 0.04351,0.10319 0.04191,0.16654 z"
       id="path1158"
       style="stroke-width:0.264583" />
    <path
       fill="#dfdfd6"
       opacity="1"
       stroke="none"
       d="m 51.569261,267.44946 c -0.917337,0.2288 -1.170988,-0.20861 -1.106583,-1.02589 0.05701,-0.72347 0.389091,-0.78322 1.038276,-0.46656 0.09746,0.48683 0.09886,0.93541 0.06831,1.49245 z"
       id="path1160"
       style="stroke-width:0.264583" />
    <path
       fill="#3c281e"
       opacity="1"
       stroke="none"
       d="m 49.701364,274.17218 c -0.03936,0.36475 -0.07871,0.72951 -0.143714,1.27358 -0.02389,0.23206 -0.02212,0.28481 -0.02035,0.33759 -0.207346,1.07321 -0.326525,2.17288 -0.638966,3.21456 -0.854697,2.84959 -2.276528,3.93336 -5.218456,4.10573 -0.569889,0.0334 -1.142331,0.0232 -1.830089,-0.0986 -0.113067,-1.79457 -0.109643,-3.4575 -0.02323,-5.15905 2.715868,-1.13181 4.182173,-3.05964 4.418542,-5.93726 0.09192,-1.11906 0.354303,-2.22409 0.612793,-3.37036 1.081633,-0.004 2.089515,0.0277 3.097398,0.0589 -0.01754,0.80879 -0.03511,1.61757 -0.03722,2.54629 -0.0158,0.30475 -0.04705,0.48954 -0.152212,0.85508 -0.07076,0.845 -0.06762,1.50925 -0.06448,2.17352 z"
       id="path1258"
       style="stroke-width:0.264583" />
    <path
       fill="#d6ad81"
       opacity="1"
       stroke="none"
       d="m 49.974914,268.49003 c -1.027523,0.076 -2.035406,0.0448 -3.201771,0.0152 -0.454845,-0.0793 -0.777489,-0.27976 -1.043183,-0.2213 -1.428052,0.31413 -1.42316,0.33637 -1.903608,-0.80765 -0.392719,0.10232 -0.775047,0.20192 -1.157375,0.30153 -0.06477,-0.11132 -0.129543,-0.22265 -0.194316,-0.33398 0.297871,-0.22222 0.620888,-0.41982 0.877822,-0.68214 0.07414,-0.0757 -0.04181,-0.33761 -0.0476,-0.58038 1.207198,-0.43313 -0.03175,-0.98521 0.06302,-1.46531 0.250362,0.13577 0.43647,0.2367 0.743442,0.4032 0,-0.74353 0,-1.40234 0,-2.06116 0.724331,-0.0929 1.448662,-0.18581 2.405263,-0.28023 1.384753,0.001 2.537233,0.004 3.689715,0.006 -0.07059,1.8662 -0.141179,3.73241 -0.231409,5.70588 m -4.962517,-0.40535 c 0.02917,-0.13487 0.05833,-0.26977 0.08749,-0.40464 -0.08863,0.0987 -0.177268,0.1974 -0.08749,0.40464 m -0.507683,0.006 c -0.02164,0.0619 -0.0433,0.12385 -0.06494,0.18577 0.06183,-0.0196 0.123671,-0.0393 0.06494,-0.18577 z"
       id="path1260"
       style="stroke-width:0.264583" />
    <path
       fill="#faf9f8"
       opacity="1"
       stroke="none"
       d="m 50.251451,262.68454 c -1.19761,0.097 -2.35009,0.0943 -3.624043,0.0754 -0.124603,-0.88945 -0.09172,-1.76462 -0.141319,-2.63511 -0.04647,-0.81547 0.310396,-1.03015 1.079984,-1.05909 0.916868,-0.0345 1.827054,-0.24677 2.821855,-0.44556 0.02402,1.27921 -0.03366,2.62198 -0.136477,4.06435 z"
       id="path1262"
       style="stroke-width:0.264583" />
    <path
       fill="#c8c4bc"
       opacity="1"
       stroke="none"
       d="m 29.34669,264.13298 c -0.125172,-0.006 -0.250346,-0.0113 -0.469254,-0.0177 0.157829,-0.6105 0.409387,-1.22018 0.68435,-1.88658 -1.20918,-1.32206 -0.217623,-3.19772 -0.537173,-4.97751 2.389685,-0.14844 4.787855,-0.18398 7.302542,-0.0979 -0.213648,0.77959 -0.666366,1.40588 -0.846315,2.10262 -0.297243,1.15092 -0.418433,2.34732 -0.665861,3.55048 -0.125248,0.0584 -0.181835,0.10926 -0.321982,0.17182 -0.300733,-0.009 -0.501285,-0.0115 -0.758856,-0.052 -0.146413,-0.0407 -0.235818,-0.0434 -0.428422,-0.0126 -0.997452,0.0621 -1.898631,0.17221 -2.78402,0.0968 -0.911643,-0.0777 -1.107416,0.41097 -1.175009,1.12255 z"
       id="path1292"
       style="stroke-width:0.264583" />
    <path
       fill="#dad8d0"
       opacity="1"
       stroke="none"
       d="m 34.867023,262.78043 c 0.195384,-1.17722 0.316574,-2.37363 0.613817,-3.52454 0.179949,-0.69675 0.632667,-1.32303 0.968018,-2.07479 0.208135,-0.10601 0.411086,-0.1182 0.710562,-0.0968 0.301051,0.16084 0.505569,0.28808 0.791808,0.53417 -0.285429,1.85738 -0.652584,3.59592 -1.125601,5.36813 -0.320889,-0.001 -0.535921,-0.0357 -0.73846,-0.11196 0.01249,-0.0416 -0.07182,-0.0732 -0.07182,-0.0732 0,0 -0.0066,0.11493 -0.09668,0.14967 -0.407585,0.0283 -0.725106,0.0218 -1.03491,-0.0316 0.0077,-0.047 -0.01675,-0.13904 -0.01675,-0.13904 z"
       id="path1294"
       style="stroke-width:0.264583" />
    <path
       fill="#21150c"
       opacity="1"
       stroke="none"
       d="m 36.074676,262.91619 c 0.21503,0.0347 0.430062,0.0694 0.853803,0.10063 0.955159,-0.009 1.701604,-0.0154 2.448049,-0.0214 0,0 -0.04751,0.0286 -0.04683,0.16215 0.13616,0.76184 0.271637,1.39015 0.407114,2.01843 0.198393,0.15372 0.396783,0.30745 0.59517,0.46117 0.18909,-0.43003 0.378177,-0.86008 0.632534,-1.25099 -0.04037,0.83541 0.164955,1.2293 1.028525,0.78438 0.0058,0.005 0.01857,0.0151 0.06204,0.0919 0.437901,0.37954 0.832342,0.68232 1.226781,0.98509 0.0288,0.17654 0.144756,0.43845 0.07062,0.51415 -0.256934,0.26233 -0.579951,0.45992 -0.877822,0.68215 0.06477,0.11133 0.129546,0.22266 0.194316,0.33397 0.382328,-0.0996 0.764656,-0.19921 1.157375,-0.30153 0.480448,1.14402 0.475556,1.12178 1.903608,0.80765 0.265694,-0.0585 0.588338,0.14203 0.969428,0.25612 -0.100002,1.14457 -0.362387,2.24961 -0.454306,3.36866 -0.236368,2.87762 -1.702673,4.80546 -4.512855,5.97483 -1.560763,-0.10711 -2.944233,-0.29039 -4.380862,-0.48072 -0.113961,0.9523 -0.158419,2.0808 -0.404318,3.16357 -0.240919,1.06083 -0.361558,1.97322 0.814973,2.52798 -4.549577,0.44362 -6.454656,-2.61746 -6.852351,-6.39759 -0.353455,-3.3596 -0.643102,-6.72589 -0.964933,-10.13173 -0.247603,0 -0.550326,0 -0.736026,0 0.04417,-0.79902 0.08404,-1.5201 0.13094,-2.33662 0.07463,-0.80704 0.270406,-1.29566 1.182049,-1.21801 0.885389,0.0754 1.786568,-0.0347 2.834757,-0.0358 0.247528,0.0149 0.341117,0.002 0.4347,-0.0103 0.200556,0.002 0.401108,0.005 0.775274,0.051 0.218948,0.013 0.264281,-0.0179 0.30961,-0.0488 0.317524,0.006 0.635045,0.0129 1.059085,-0.009 0.106518,-0.0285 0.139551,-0.0412 0.139551,-0.0412 z"
       id="path1296"
       style="stroke-width:0.264583" />
    <path
       fill="#2e1d15"
       opacity="1"
       stroke="none"
       d="m 37.879579,283.11775 c -1.29409,-0.57814 -1.173451,-1.49052 -0.932532,-2.55136 0.245899,-1.08276 0.290357,-2.21126 0.404318,-3.16356 1.436629,0.19033 2.820099,0.3736 4.297881,0.51933 0.09089,1.62537 0.08747,3.2883 0.08309,5.05933 -0.453506,0.12989 -0.90605,0.15169 -1.4703,0.19367 -0.829434,0.002 -1.547164,-0.016 -2.382454,-0.0574 z"
       id="path1298"
       style="stroke-width:0.264583" />
    <path
       fill="#e5dfd7"
       opacity="1"
       stroke="none"
       d="m 39.376298,262.90019 c -0.746215,0.10122 -1.49266,0.1072 -2.341959,0.0829 0.264305,-1.76874 0.63146,-3.50728 0.99904,-5.36358 0.21736,-0.11754 0.434287,-0.11761 0.651219,-0.11706 2.105398,0.005 2.414198,0.3281 1.899811,2.42984 -0.243871,0.99642 -0.795914,1.91742 -1.208111,2.96786 z"
       id="path1560"
       style="stroke-width:0.264583" />
    <path
       fill="#4d3523"
       opacity="1"
       stroke="none"
       d="m 43.304887,266.18132 c -0.41746,-0.23655 -0.811901,-0.53932 -1.192154,-0.96538 0.02334,-0.26365 0.03249,-0.404 0.04164,-0.54435 -0.03549,-10e-4 -0.07099,-0.002 -0.106476,-0.003 -0.02024,0.16567 -0.04047,0.33134 -0.0607,0.49701 -0.857726,0.45036 -1.063046,0.0565 -0.999011,-0.88217 -0.04482,-0.49526 -0.04803,-0.84818 -0.05125,-1.20112 0.545317,-0.0226 1.090636,-0.0452 1.756656,0.0389 0.150085,0.25396 0.179459,0.40119 0.208838,0.5484 0.04408,-0.006 0.08817,-0.0127 0.132247,-0.019 0,-0.20228 0,-0.40456 0,-0.60685 0.04818,-0.008 0.09635,-0.0164 0.24208,0.0624 0.138518,0.18739 0.179483,0.28769 0.220449,0.38801 0.119872,-0.15051 0.239746,-0.30102 0.359619,-0.45153 -6e-6,0 0.128428,-0.009 0.191476,0.003 0.06305,0.67153 0.06305,1.33034 0.06305,2.07387 -0.306972,-0.1665 -0.49308,-0.26743 -0.743442,-0.4032 -0.09477,0.4801 1.144174,1.03218 -0.06302,1.46531 z"
       id="path1562"
       style="stroke-width:0.264583" />
    <path
       fill="#655f56"
       opacity="1"
       stroke="none"
       d="m 40.826201,263.05247 c 0.113949,0.38233 0.117161,0.73525 0.09671,1.1914 -0.212751,0.53326 -0.401838,0.9633 -0.590928,1.39333 -0.198387,-0.15372 -0.396777,-0.30744 -0.59517,-0.46116 -0.135477,-0.62829 -0.270954,-1.2566 -0.39692,-1.99265 0.464871,-0.12526 0.920229,-0.14277 1.48631,-0.13092 z"
       id="path1564"
       style="stroke-width:0.264583" />
    <path
       fill="#c5aa8f"
       opacity="1"
       stroke="none"
       d="m 43.812506,262.99616 c -0.07556,0.19644 -0.195429,0.34695 -0.315301,0.49745 -0.04097,-0.10032 -0.08193,-0.20062 -0.147691,-0.37903 0.123026,-0.10685 0.270849,-0.1356 0.462992,-0.11842 z"
       id="path1566"
       style="stroke-width:0.264583" />
    <path
       fill="#e5dfd7"
       opacity="1"
       stroke="none"
       d="m 41.46254,257.59121 c 0.120621,0.006 0.202459,0.0509 0.284303,0.096 -0.107693,-0.0189 -0.215387,-0.0378 -0.284303,-0.096 z"
       id="path1568"
       style="stroke-width:0.264583" />
    <path
       fill="#c5aa8f"
       opacity="1"
       stroke="none"
       d="m 42.977428,263.0289 c 0.05725,0.2166 0.05725,0.41888 0.05725,0.62116 -0.04408,0.006 -0.08816,0.0127 -0.132247,0.019 -0.02938,-0.14721 -0.05875,-0.29444 -0.09202,-0.53221 -0.0039,-0.0906 0.109773,-0.12232 0.167016,-0.10801 z"
       id="path1570"
       style="stroke-width:0.264583" />
    <path
       fill="#eee5d9"
       opacity="1"
       stroke="none"
       d="m 49.8,274.14614 c -0.101777,-0.63823 -0.104918,-1.30248 -0.04397,-2.05388 0.09026,0.61786 0.11643,1.32286 0.04397,2.05388 z"
       id="path1572"
       style="stroke-width:0.264583" />
    <path
       fill="#eee5d9"
       opacity="1"
       stroke="none"
       d="m 49.596694,275.76334 c -0.06116,-0.0328 -0.06293,-0.0855 -0.02721,-0.208 0.08503,-0.01 0.13454,0.0487 0.175715,0.11267 0.0027,0.004 -0.05793,0.0493 -0.148506,0.0953 z"
       id="path1574"
       style="stroke-width:0.264583" />
    <path
       fill="#21150c"
       opacity="1"
       stroke="none"
       d="m 44.92319,268.0304 c -5.29e-4,-0.15296 0.08806,-0.25167 0.176702,-0.35037 -0.02916,0.13488 -0.05832,0.26977 -0.176702,0.35037 z"
       id="path1638"
       style="stroke-width:0.264583" />
    <path
       fill="#21150c"
       opacity="1"
       stroke="none"
       d="m 44.564999,268.15426 c -0.0016,0.0831 -0.06339,0.10271 -0.125224,0.12235 0.02164,-0.0619 0.04329,-0.12385 0.125224,-0.12235 z"
       id="path1640"
       style="stroke-width:0.264583" />
    <path
       fill="#c5aa8f"
       opacity="1"
       stroke="none"
       d="m 34.88376,262.91947 c -0.05305,0.0779 -0.09838,0.10883 -0.217154,0.10263 -0.03346,-0.10647 0.02313,-0.15737 0.148376,-0.21574 0.05204,-0.0259 0.0765,0.0661 0.06878,0.11311 z"
       id="path1658"
       style="stroke-width:0.264583" />
    <path
       fill="#c5aa8f"
       opacity="1"
       stroke="none"
       d="m 33.734141,262.92622 c -0.03657,0.0507 -0.130157,0.0633 -0.274479,0.0149 0.03866,-0.0583 0.128066,-0.0556 0.274479,-0.0149 z"
       id="path1660"
       style="stroke-width:0.264583" />
    <path
       fill="#c5aa8f"
       opacity="1"
       stroke="none"
       d="m 36.087167,262.87464 c -0.01249,0.0415 -0.04552,0.0543 -0.06198,0.048 -0.01646,-0.006 -0.0098,-0.12122 -0.0098,-0.12122 0,0 0.08431,0.0317 0.07182,0.0732 z"
       id="path1662"
       style="stroke-width:0.264583" />
    <path
       fill="#21150c"
       opacity="1"
       stroke="none"
       d="m 41.99304,265.17059 c 0.01439,-0.17111 0.03462,-0.33678 0.05486,-0.50245 0.03549,0.001 0.07098,0.002 0.106476,0.003 -0.0092,0.14035 -0.01831,0.2807 -0.0851,0.46756 -0.05765,0.0465 -0.07038,0.0369 -0.07623,0.0314 z"
       id="path1728"
       style="stroke-width:0.264583" />
  </g>
</svg>
