<?xml version="1.0" encoding="UTF-8" standalone="no"?>
<!-- Created with Inkscape (http://www.inkscape.org/) -->

<svg
   width="29.770447mm"
   height="39.930721mm"
   viewBox="0 0 29.770447 39.930721"
   version="1.1"
   id="svg2233"
   inkscape:version="1.2.2 (732a01da63, 2022-12-09)"
   sodipodi:docname="bg_button1.svg"
   xmlns:inkscape="http://www.inkscape.org/namespaces/inkscape"
   xmlns:sodipodi="http://sodipodi.sourceforge.net/DTD/sodipodi-0.dtd"
   xmlns="http://www.w3.org/2000/svg"
   xmlns:svg="http://www.w3.org/2000/svg">
  <sodipodi:namedview
     id="namedview2235"
     pagecolor="#ffffff"
     bordercolor="#000000"
     borderopacity="0.25"
     inkscape:showpageshadow="2"
     inkscape:pageopacity="0.0"
     inkscape:pagecheckerboard="0"
     inkscape:deskcolor="#d1d1d1"
     inkscape:document-units="mm"
     showgrid="false"
     inkscape:zoom="0.70199214"
     inkscape:cx="366.81322"
     inkscape:cy="433.05328"
     inkscape:window-width="2880"
     inkscape:window-height="1526"
     inkscape:window-x="5749"
     inkscape:window-y="-11"
     inkscape:window-maximized="1"
     inkscape:current-layer="layer1" />
  <defs
     id="defs2230" />
  <g
     inkscape:label="Ebene 1"
     inkscape:groupmode="layer"
     id="layer1"
     transform="translate(-8.1058973,-33.931846)">
    <path
       fill="#dcd2c5"
       opacity="1"
       stroke="none"
       d="m 30.442936,64.021794 c -0.769332,3.144665 -2.624288,5.335632 -5.631098,6.597724 -3.945609,1.656149 -8.027725,2.78243 -12.280048,3.215727 -1.069379,0.108974 -2.174965,-0.137588 -3.3776044,-0.22194 -0.2939917,-1.220179 0.421857,-2.670453 -1.0385822,-3.583432 -0.05783,-0.03614 0.1555777,-0.575334 0.3008683,-0.849236 0.1722755,-0.324763 0.4077759,-0.616 0.6196965,-1.019842 1.2245398,-0.800235 2.4510948,-1.492472 3.6643288,-2.207368 1.21971,-0.718714 2.426112,-1.460013 3.754035,-2.277597 0.159745,-0.09108 0.203766,-0.09597 0.326318,-0.03583 0.80604,0.177088 1.532435,0.376423 2.261264,0.385781 2.834921,0.03644 5.670617,0.01257 8.625137,0.03516 1.004638,0.003 1.890162,-0.0181 2.775685,-0.03914 z"
       id="path70"
       style="stroke-width:0.264583" />
    <path
       fill="#3f3a33"
       opacity="1"
       stroke="none"
       d="m 16.702335,63.574963 c -0.04404,0.0049 -0.08806,0.0098 -0.197532,0.02619 -0.142965,-0.03109 -0.22048,-0.07368 -0.32624,-0.260136 -0.203316,-0.18165 -0.37837,-0.219445 -0.553439,-0.257244 -2.741919,-1.679821 -3.735044,-4.351258 -3.924808,-7.341983 -0.267039,-4.208423 -0.282284,-8.432835 -0.549111,-12.641284 -0.185388,-2.923913 -0.612817,-5.832485 -0.744188,-8.804653 9.196498,-0.05776 18.205055,-0.05877 27.229392,-0.01265 0.055,0.104285 0.107955,0.142303 0.170225,0.233722 0.0035,0.120314 0.01151,0.168098 -0.02954,0.277773 -0.113123,0.315092 -0.177234,0.568301 -0.333378,0.788035 -0.15453,-0.05224 -0.217024,-0.07101 -0.313661,-0.101497 -0.03414,-0.01172 -0.08165,0.04261 -0.05348,-0.04271 -0.07062,-0.128845 -0.169402,-0.172366 -0.389189,-0.243274 -1.801698,-0.0074 -3.482392,0.01252 -5.250423,0.0031 -0.735468,-0.0045 -1.38357,0.02045 -2.134365,0.02196 -1.179078,-0.005 -2.255467,0.01344 -3.42379,0.01019 -1.002199,-0.0068 -1.912464,0.0081 -2.932022,0.0053 -0.477168,-0.0045 -0.84509,0.0088 -1.334932,2.36e-4 -1.45193,-0.0079 -2.781953,0.0059 -4.234722,0.0011 -2.065975,-0.01614 -4.009205,-0.01355 -6.00511,-0.04184 -0.147212,0.103624 -0.241716,0.238133 -0.321281,0.48165 0.569425,3.635801 1.123897,7.162591 1.665176,10.788881 0.01297,0.297809 0.03911,0.496125 0.05557,0.807807 0.165462,2.659769 0.30263,5.209492 0.525841,7.751675 0.251372,2.862842 1.158811,5.414147 3.707315,7.188951 -0.108424,0.526122 -0.205364,0.943507 -0.302308,1.360882 z"
       id="path388"
       style="stroke-width:0.264583" />
    <path
       fill="#faf7f0"
       opacity="1"
       stroke="none"
       d="m 37.477117,33.93306 c 0.125978,0.05059 0.128772,0.101111 0.137557,0.22732 -9.002602,0.0767 -18.011159,0.07772 -27.143723,0.06472 0.375412,-0.107173 0.874654,-0.280596 1.374219,-0.281549 8.502888,-0.01622 17.005826,-0.01103 25.631947,-0.0105 z"
       id="path392"
       style="stroke-width:0.264583" />
    <path
       fill="#3f3025"
       opacity="1"
       stroke="none"
       d="m 15.663671,63.152929 c 0.136522,-0.03135 0.311576,0.0065 0.487648,0.127365 -0.149037,0.036 -0.299061,-0.01111 -0.487648,-0.127365 z"
       id="path394"
       style="stroke-width:0.264583" />
    <path
       fill="#4a4339"
       opacity="1"
       stroke="none"
       d="m 37.050836,40.549342 c -0.02016,0.386704 -0.04034,0.773411 -0.198083,1.308007 -0.163767,3.823325 -0.190881,7.498755 -0.20937,11.174233 -2.65e-4,0.06775 0.10164,0.13603 0.155869,0.204057 0.02082,0.11851 0.04165,0.237019 0.07979,0.444548 -0.368517,2.045231 -0.525629,4.084529 -1.198457,5.936466 -0.829535,2.283355 -2.600745,3.79511 -5.159615,4.351891 -0.963557,0.0743 -1.849081,0.09535 -2.836326,-0.0041 -0.01474,-0.502013 0.0722,-0.883523 0.259303,-1.287987 0.371972,-0.0035 0.643773,0.01598 0.945951,0.08109 0.09522,-0.0024 0.160036,-0.05031 0.307959,-0.145889 2.787105,-0.429955 4.624446,-2.066298 5.145651,-4.587737 0.652219,-3.155347 0.765617,-6.422062 1.129774,-9.740305 -0.01752,-0.225792 -0.05321,-0.351988 -0.09517,-0.487389 -0.0063,-0.0092 0.0066,-0.02739 0.06602,-0.122086 0.03553,-0.765223 0.01167,-1.435756 0.03415,-2.208067 0.298061,-1.709505 0.549775,-3.317232 0.898009,-4.925354 0.289176,0.0026 0.481867,0.0056 0.674539,0.0086 z"
       id="path524"
       style="stroke-width:0.264583" />
    <path
       fill="#3f3025"
       opacity="1"
       stroke="none"
       d="m 27.843791,62.699412 c -0.08695,0.381508 -0.173892,0.763018 -0.278262,1.241017 -2.852798,0.09791 -5.688494,0.121785 -8.523415,0.08535 -0.728829,-0.0094 -1.455224,-0.208693 -2.261264,-0.385781 0.01844,-0.482407 0.115369,-0.899792 0.327711,-1.386851 0.978236,0.03023 1.838923,0.186828 2.704293,0.219472 2.676014,0.10097 5.353822,0.154715 8.030937,0.226796 z"
       id="path596"
       style="stroke-width:0.264583" />
    <path
       fill="#e7e0d9"
       opacity="1"
       stroke="none"
       d="m 27.943947,62.676456 c -2.777271,-0.04913 -5.455079,-0.10287 -8.131093,-0.20384 -0.86537,-0.03264 -1.726057,-0.18924 -2.69281,-0.32821 -2.663905,-1.705129 -3.571344,-4.256434 -3.822716,-7.119276 -0.223211,-2.542183 -0.360379,-5.091906 -0.436587,-7.776416 0.235985,-0.538983 0.373007,-0.939864 0.510048,-1.340745 -0.06182,-0.02447 -0.123637,-0.04895 -0.185438,-0.07342 -0.152075,0.1772 -0.304165,0.354402 -0.45624,0.531596 -0.554471,-3.526788 -1.108943,-7.053578 -1.599239,-10.729069 0.141094,-0.236161 0.217977,-0.323614 0.294846,-0.411075 1.943211,-0.0026 3.886441,-0.0052 5.953482,0.11897 0.09261,0.592167 0.0614,1.057582 0.03903,1.391158 -0.847235,0.193485 -1.653145,0.170492 -2.155327,0.549696 -0.515326,0.389128 -0.733758,1.171448 -1.112547,1.835002 0.145244,0.0459 0.515168,0.1628 0.845815,0.267295 -0.0072,0.827233 -1.10426,0.943737 -0.695259,2.11827 0.37057,1.064199 -0.300966,2.491277 -0.54307,3.819112 0.07396,0.206171 0.177977,0.351592 0.362802,0.497829 0.134601,-0.0019 0.18841,-0.0044 0.298688,0.05955 0.05849,0.296994 0.06049,0.527407 0.03731,0.783309 -0.05796,0.09835 -0.0421,0.16074 0.04454,0.33551 0.05412,2.319441 0.08608,4.516059 0.106889,6.810963 0.05552,0.400798 0.122167,0.703323 0.207466,1.105656 0.04267,0.436901 0.0667,0.773994 0.09368,1.184886 0.0577,0.152485 0.112426,0.23117 0.196741,0.401873 0.821703,2.277637 1.931114,4.140565 4.599009,4.565224 0.901946,0.06403 1.720696,0.06596 2.653456,0.08548 0.573447,0.0061 1.032899,-0.0055 1.602451,-0.0029 0.479785,0.0063 0.84945,-0.0016 1.333609,0.0045 0.834122,-0.06393 1.553749,-0.141669 2.2788,-0.21811 0.0055,0.0013 0.01529,0.0072 0.129226,0.01193 2.300213,0.167868 3.79087,-0.883603 4.895146,-2.784398 0.211404,-0.483304 0.445013,-0.872623 0.514567,-1.289312 0.362833,-2.174026 0.683987,-4.355007 1.113951,-6.551046 0.203991,-0.172654 0.442833,-0.385318 0.403302,-0.474147 -0.394129,-0.885846 0.130013,-1.2187 0.826661,-1.469152 -0.346006,3.218643 -0.459404,6.485358 -1.111623,9.640705 -0.521205,2.521439 -2.358546,4.157782 -5.213217,4.58266 -0.190702,0.06345 -0.230736,0.08438 -0.270751,0.105315 -0.27182,-0.01947 -0.543621,-0.03894 -0.915593,-0.03544 M 14.461775,36.947982 c 0,0 0.01683,0.02851 0,0 z"
       id="path922"
       style="stroke-width:0.264583" />
    <path
       fill="#ded6cb"
       opacity="1"
       stroke="none"
       d="m 13.786897,45.264751 c 0.21205,-1.267081 0.883586,-2.694159 0.513016,-3.758358 -0.409001,-1.174533 0.68801,-1.291037 0.695259,-2.11827 -0.330647,-0.104495 -0.700571,-0.221396 -0.845815,-0.267295 0.378789,-0.663554 0.597221,-1.445874 1.112547,-1.835002 0.502182,-0.379204 1.308092,-0.356211 2.155327,-0.549696 0.02236,-0.333576 0.05358,-0.798991 0.08373,-1.37242 1.328941,-0.121836 2.658964,-0.13566 4.090609,-0.03673 -0.344535,1.027787 -1.870493,1.071308 -1.907392,2.136963 0.854469,0.169642 1.509419,0.256278 2.136013,0.439737 0.40059,0.117285 0.759272,0.377682 1.136753,0.573924 -0.366887,0.176564 -0.73379,0.353136 -1.025874,0.493707 0.629015,0.716695 1.260808,1.479113 1.948571,2.187157 0.152334,0.156813 0.50241,0.12152 0.762746,0.176297 0.0013,0.0016 0.0046,0.0042 0.0042,0.084 -0.127995,0.338762 -0.255619,0.597725 -0.415655,0.922467 1.031396,0.07995 2.296824,-0.2824 2.228223,1.407901 -1.423135,-0.171276 -2.811505,-0.384892 -4.295457,-0.607917 -1.266656,0.0186 -2.437739,0.04661 -3.715761,0.04492 -0.812324,0.122618 -1.51769,0.274942 -2.106994,0.402204 0,0.755533 0,1.217078 -0.0963,1.668671 -0.883441,-0.004 -1.670601,0.0019 -2.457747,0.0078 z"
       id="path924"
       style="stroke-width:0.264583" />
    <path
       fill="#f4f0ea"
       opacity="1"
       stroke="none"
       d="m 36.279774,40.541119 c -0.251711,1.607722 -0.503425,3.215449 -0.88533,4.944462 -0.48164,0.284519 -0.833104,0.447743 -1.205579,0.514955 -0.20732,-0.24988 -0.393629,-0.403738 -0.601319,-0.575823 -0.07635,-0.04368 -0.127561,-0.036 -0.267555,0.01651 -0.398023,-0.05109 -0.703479,-0.113866 -1.071721,-0.246642 -1.065697,-1.261258 -0.916128,-3.808886 0.324173,-4.990399 -0.357603,-0.03233 -0.62149,-0.05618 -1.048128,-0.09475 0,-1.617232 0,-3.249483 0,-4.881738 1.680681,-0.01995 3.361375,-0.03989 5.189558,0.02772 0.192543,0.165743 0.254876,0.226028 0.334539,0.26842 0,0 0.04751,-0.05434 0.03272,0.05492 -0.266216,1.460973 -0.517621,2.812692 -0.789874,4.262797 -0.01773,0.298778 -0.01461,0.499165 -0.01148,0.699558 z"
       id="path926"
       style="stroke-width:0.264583" />
    <path
       fill="#e7e0d9"
       opacity="1"
       stroke="none"
       d="m 24.641079,41.333152 c -0.259027,-0.05317 -0.609103,-0.01786 -0.761437,-0.174686 -0.687763,-0.708044 -1.319556,-1.470462 -1.948571,-2.187157 0.292084,-0.140571 0.658987,-0.317143 1.025874,-0.493707 -0.377481,-0.196242 -0.736163,-0.456639 -1.136753,-0.573924 -0.626594,-0.183459 -1.281544,-0.270095 -2.136013,-0.439737 0.0369,-1.065655 1.562857,-1.109176 2.029317,-2.115225 0.388202,-0.104243 0.756124,-0.117465 1.262036,-0.01122 1.124786,0.53078 2.105038,0.850913 2.995213,-0.08535 1.076388,-0.01842 2.152777,-0.03684 3.327479,0.05746 0.09746,0.231965 0.0966,0.35121 0.04,0.500293 -0.124362,0.08384 -0.171728,0.152489 -0.197242,0.235296 5.3e-4,-5.29e-4 0.0016,-0.0019 -0.07545,-0.0059 -1.38869,-0.510667 -1.206855,1.083504 -1.973231,1.343914 0.201893,0.441852 0.403786,0.883703 0.638429,1.397209 -0.196321,0.563052 -0.451734,1.295646 -0.706464,2.027526 7.94e-4,-7.93e-4 0.0019,-0.0021 -0.08511,0.007 -0.356211,0.218651 -0.62535,0.42822 -1.153112,0.839189 0.852744,0.07185 1.326229,0.111742 1.907474,0.160719 -0.230992,0.319574 -0.367353,0.508219 -0.525,0.72631 0.261581,0.08116 0.461018,0.143031 0.6238,0.193538 -0.167722,0.329914 -0.332054,0.653174 -0.58538,0.977476 -0.207563,0.0021 -0.326128,0.0034 -0.512035,0.0091 -0.111894,-0.0019 -0.156432,-0.0081 -0.200988,-0.01445 0.03383,-1.647965 -1.231595,-1.285618 -2.262991,-1.365565 0.160035,-0.324741 0.28766,-0.583705 0.449569,-0.937022 0.0097,-0.08659 -0.01487,-0.07882 -0.03942,-0.07106 m -0.664816,-2.553002 c 0.01347,-0.05096 0.02693,-0.101914 0.04039,-0.152881 -0.03286,0.03273 -0.06573,0.06545 -0.04039,0.152881 m 2.391955,-2.626772 c 0,0 0.01722,0.02866 0,0 m -3.704892,0.794948 c 0,0 0.01685,0.02846 0,0 z"
       id="path928"
       style="stroke-width:0.264583" />
    <path
       fill="#faf9f8"
       opacity="1"
       stroke="none"
       d="m 29.393972,35.780069 c 7.93e-4,-0.119248 0.0016,-0.238493 0.0069,-0.447067 0.652481,-0.114249 1.300583,-0.139163 2.03605,-0.134691 0.08735,1.661649 0.08735,3.293901 0.08735,4.911132 0.426638,0.03857 0.690525,0.06242 1.048128,0.09475 -1.2403,1.181513 -1.389869,3.729141 -0.423505,5.004255 -0.578001,0.06785 -1.119457,0.05185 -1.673992,-0.0449 -0.453171,-0.447009 -0.893244,-0.813266 -1.273665,-1.247799 0.23794,-0.423982 0.527392,-0.76608 0.572932,-1.138045 0.11866,-0.96911 0.160858,-1.950918 0.173746,-2.92845 0.0082,-0.622673 -0.09026,-1.246751 -0.142999,-1.895951 0.103949,-0.17988 0.386395,-0.44227 0.366982,-0.680022 -0.0472,-0.578083 0.117211,-1.334706 -0.77797,-1.49321 z"
       id="path930"
       style="stroke-width:0.264583" />
    <path
       fill="#4a4339"
       opacity="1"
       stroke="none"
       d="m 36.312103,39.743172 c 0.251407,-1.351716 0.502812,-2.703435 0.803167,-4.152685 0.111427,-0.07877 0.173921,-0.06 0.328451,-0.0078 -0.04202,1.340244 -0.176056,2.647018 -0.42998,4.065174 -0.313788,0.106008 -0.507722,0.10064 -0.701638,0.09527 z"
       id="path932"
       style="stroke-width:0.264583" />
    <path
       fill="#ded6cb"
       opacity="1"
       stroke="none"
       d="m 25.87881,35.230474 c -0.79824,0.957939 -1.778492,0.637807 -2.794016,0.124724 0.881552,-0.116652 1.791817,-0.131524 2.794016,-0.124724 z"
       id="path934"
       style="stroke-width:0.264583" />
    <path
       fill="#ded6cb"
       opacity="1"
       stroke="none"
       d="m 12.715919,46.465655 c 0.165267,-0.276703 0.317357,-0.453905 0.469432,-0.631105 0.0618,0.02447 0.123618,0.04895 0.185438,0.07342 -0.137041,0.400881 -0.274063,0.801762 -0.500359,1.227381 -0.115398,-0.173577 -0.141544,-0.371893 -0.154511,-0.669695 z"
       id="path936"
       style="stroke-width:0.264583" />
    <path
       fill="#efebe5"
       opacity="1"
       stroke="none"
       d="m 11.372024,35.195123 c -0.02418,0.11834 -0.101058,0.205793 -0.257091,0.332941 0.01537,-0.09481 0.109879,-0.229323 0.257091,-0.332941 z"
       id="path938"
       style="stroke-width:0.264583" />
    <path
       fill="#faf9f8"
       opacity="1"
       stroke="none"
       d="m 37.076577,35.438526 c -0.107828,0.04293 -0.170161,-0.01736 -0.241686,-0.155715 0.07228,-0.01664 0.171066,0.02687 0.241686,0.155715 z"
       id="path940"
       style="stroke-width:0.264583" />
    <path
       fill="#e5e4df"
       opacity="1"
       stroke="none"
       d="m 37.806634,34.516919 c 0.04162,0.0052 0.07881,0.08298 0.06773,0.188312 -0.05623,-0.02021 -0.06418,-0.068 -0.06773,-0.188312 z"
       id="path942"
       style="stroke-width:0.264583" />
    <path
       fill="#2f2924"
       opacity="1"
       stroke="none"
       d="m 36.816677,53.113214 c -0.07165,0.0544 -0.173633,-0.01386 -0.173294,-0.08163 0.01849,-3.675478 0.0456,-7.350908 0.164767,-11.08914 0.07062,3.640921 0.04828,7.344635 0.0085,11.170772 z"
       id="path944"
       style="stroke-width:0.264583" />
    <path
       fill="#655f56"
       opacity="1"
       stroke="none"
       d="m 36.291257,39.84156 c 0.214762,-0.09302 0.408696,-0.08765 0.699698,-0.08615 0.100431,0.196754 0.103789,0.39738 0.08352,0.695968 -0.216312,0.09496 -0.409003,0.09195 -0.698179,0.08934 -0.09964,-0.199993 -0.102772,-0.40038 -0.08504,-0.699159 z"
       id="path946"
       style="stroke-width:0.264583" />
    <path
       fill="#efebe5"
       opacity="1"
       stroke="none"
       d="m 34.209891,46.096548 c 0.351449,-0.163224 0.702913,-0.326448 1.138206,-0.509182 0.107696,0.651018 0.131564,1.321551 0.04031,2.084766 -0.07809,0.106227 -0.04105,0.119766 -0.004,0.133307 0.03569,0.126188 0.07138,0.252384 0.0889,0.478176 -0.714798,0.350052 -1.238941,0.682906 -0.844812,1.568752 0.03953,0.08883 -0.199311,0.301493 -0.405966,0.349348 -0.06888,-1.439939 -0.04074,-2.772553 -0.01262,-4.105167 z"
       id="path1056"
       style="stroke-width:0.264583" />
    <path
       fill="#3f3025"
       opacity="1"
       stroke="none"
       d="m 28.889898,62.757546 c 0.0097,-0.06659 0.04969,-0.08752 0.157292,-0.103375 0.0028,0.05306 -0.06208,0.101041 -0.157292,0.103375 z"
       id="path1058"
       style="stroke-width:0.264583" />
    <path
       fill="#e7e0d9"
       opacity="1"
       stroke="none"
       d="m 35.378116,47.796226 c -0.03076,-0.0043 -0.06781,-0.01786 -0.04911,-0.0294 0.05573,0.0021 0.04284,0.02019 0.04911,0.0294 z"
       id="path1060"
       style="stroke-width:0.264583" />
    <path
       fill="#d8b287"
       opacity="1"
       stroke="none"
       d="m 32.543164,58.248236 c -1.05079,1.819431 -2.541447,2.870902 -4.852998,2.576862 -0.128463,-0.657574 -0.134247,-1.184238 -0.134342,-1.710902 -2.65e-4,-1.6023 0.0016,-3.204601 0.05185,-4.880506 1.645346,-1.312405 2.179487,-3.105933 2.697221,-4.938356 0.364947,0.850506 0.627253,1.683176 0.903658,2.511153 0.592357,1.774277 1.409959,3.496114 1.124592,5.459825 -0.04514,0.310576 0.134359,0.653796 0.210016,0.981924 z"
       id="path1382"
       style="stroke-width:0.264583" />
    <path
       fill="#ba8954"
       opacity="1"
       stroke="none"
       d="m 13.756843,45.325505 c 0.8172,-0.06666 1.604359,-0.07256 2.581674,-0.0032 0.249645,0.748064 0.309105,1.420908 0.367856,2.216692 -0.211566,3.414649 1.11035,6.471883 1.463606,9.678279 0.152252,1.381818 0.200213,2.821524 1.450766,3.79095 -2.584678,-0.362559 -3.694089,-2.225487 -4.518925,-4.576297 -0.08735,-0.244282 -0.141964,-0.323387 -0.196564,-0.402503 -0.02402,-0.337089 -0.04806,-0.674182 -0.07884,-1.205891 -0.07393,-0.499462 -0.141076,-0.804289 -0.208222,-1.109123 -0.03194,-2.196629 -0.0639,-4.393247 -0.103354,-6.77205 -0.0075,-0.182176 -0.03401,-0.301646 -0.03401,-0.301646 -0.0021,-0.230405 -0.004,-0.460817 -0.09121,-0.808606 -0.173712,-0.08145 -0.262257,-0.04551 -0.350784,-0.0096 -0.104016,-0.145421 -0.208032,-0.290841 -0.281993,-0.497012 z"
       id="path1384"
       style="stroke-width:0.264583" />
    <path
       fill="#d6ad81"
       opacity="1"
       stroke="none"
       d="m 32.59665,58.166872 c -0.129143,-0.246764 -0.308637,-0.589984 -0.263502,-0.90056 0.285367,-1.963711 -0.532235,-3.685548 -1.124592,-5.459825 -0.276405,-0.827977 -0.538711,-1.660647 -0.908924,-2.633713 -0.1965,-1.3668 -0.291488,-2.59108 -0.293941,-3.848409 0.222467,-0.04872 0.352401,-0.06439 0.482335,-0.08007 0.541454,0.01601 1.082911,0.03201 1.7237,0.03416 0.404786,0.04891 0.710242,0.111686 1.156065,0.183983 0.140351,0.0095 0.24112,-0.0195 0.24112,-0.0195 0.186325,0.15386 0.372634,0.307718 0.579969,0.557598 -0.0071,1.428626 -0.03525,2.76124 -0.0607,4.218652 -0.332973,2.303365 -0.654127,4.484346 -1.01696,6.658372 -0.06955,0.416689 -0.303163,0.806008 -0.514567,1.289312 z"
       id="path1386"
       style="stroke-width:0.264583" />
    <path
       fill="#d5a670"
       opacity="1"
       stroke="none"
       d="m 27.558375,54.307286 c -0.0011,1.602309 -0.0029,3.20461 -0.0026,4.80691 9.5e-5,0.526664 0.0059,1.053328 0.0204,1.706163 0.01135,0.126172 0.0016,0.120277 -0.120343,0.109967 -0.840195,0.06423 -1.558544,0.138774 -2.276896,0.213309 -0.369662,0.0078 -0.739328,0.01561 -1.218755,-0.09894 -0.374333,-1.890689 -0.638884,-3.659032 -0.791845,-5.427464 1.00648,-0.176112 1.901386,-0.352134 2.887064,-0.535358 0.561499,-0.262993 1.032206,-0.518793 1.502929,-0.774584 z"
       id="path1388"
       style="stroke-width:0.264583" />
    <path
       fill="#ba905e"
       opacity="1"
       stroke="none"
       d="m 19.703962,61.070303 c -1.33377,-1.031525 -1.381731,-2.471232 -1.533983,-3.85305 -0.353256,-3.206395 -1.675172,-6.263629 -1.392407,-9.610137 0.818491,1.837525 1.565021,3.729876 2.31307,5.724432 0.52161,1.906585 0.979672,3.732241 1.588325,5.506244 0.29877,0.870839 0.303049,2.044239 1.564439,2.300401 -0.818748,-0.0019 -1.637498,-0.0039 -2.539444,-0.06789 z"
       id="path1390"
       style="stroke-width:0.264583" />
    <path
       fill="#cfa16a"
       opacity="1"
       stroke="none"
       d="m 22.357418,61.15578 c -1.375402,-0.273749 -1.379681,-1.447149 -1.678451,-2.317988 -0.608653,-1.774003 -1.066715,-3.599659 -1.510728,-5.462416 0.815485,0.454422 1.554863,0.967214 2.353474,1.548953 0.551161,0.276953 1.043119,0.484973 1.53508,0.692997 0.264549,1.768334 0.529101,3.536677 0.793298,5.413242 -0.459774,0.119753 -0.919226,0.131276 -1.492673,0.125212 z"
       id="path1392"
       style="stroke-width:0.264583" />
    <path
       fill="#d8b287"
       opacity="1"
       stroke="none"
       d="m 25.293478,61.157444 c 0.603856,-0.08834 1.322205,-0.162888 2.156973,-0.228412 -0.603224,0.08674 -1.322851,0.164486 -2.156973,0.228412 z"
       id="path1394"
       style="stroke-width:0.264583" />
    <path
       fill="#ded6cb"
       opacity="1"
       stroke="none"
       d="m 14.607065,53.812664 c 0.07827,0.20656 0.145423,0.511386 0.200684,0.911031 -0.07852,-0.207708 -0.145163,-0.510233 -0.200684,-0.911031 z"
       id="path1396"
       style="stroke-width:0.264583" />
    <path
       fill="#ded6cb"
       opacity="1"
       stroke="none"
       d="m 14.119645,45.823334 c 0.0077,-0.03675 0.09626,-0.07269 0.213503,-0.05783 -0.02508,0.05341 -0.0789,0.05603 -0.213503,0.05783 z"
       id="path1398"
       style="stroke-width:0.264583" />
    <path
       fill="#ded6cb"
       opacity="1"
       stroke="none"
       d="m 14.470189,36.962238 c 0.0084,0.01426 -0.0084,-0.01426 0,0 z"
       id="path1400"
       style="stroke-width:0.264583" />
    <path
       fill="#ded6cb"
       opacity="1"
       stroke="none"
       d="m 14.908212,56.103206 c 0.05164,0.0053 0.106259,0.08442 0.164023,0.236686 -0.0516,-0.0055 -0.106323,-0.0842 -0.164023,-0.236686 z"
       id="path1402"
       style="stroke-width:0.264583" />
    <path
       fill="#ded6cb"
       opacity="1"
       stroke="none"
       d="m 14.455639,46.666191 c 0.02519,-0.02551 0.05171,0.09397 0.03704,0.153334 -0.07914,0.0074 -0.095,-0.05499 -0.03704,-0.153334 z"
       id="path1404"
       style="stroke-width:0.264583" />
    <path
       fill="#be8a4e"
       opacity="1"
       stroke="none"
       d="m 27.607677,54.23369 c -0.520025,0.329387 -0.990732,0.585187 -1.567781,0.758819 -0.593957,-0.94375 -1.315958,-1.75393 -1.51874,-2.678027 -0.381854,-1.740091 -0.506007,-3.542321 -0.658325,-5.325465 -0.125429,-1.468419 -0.319892,-2.870692 -1.60355,-3.83839 1.388367,0.213612 2.776736,0.427228 4.199871,0.598504 0.07933,-0.036 0.123863,-0.02967 0.26896,0.03248 0.211148,0.19994 0.321768,0.344077 0.496774,0.570912 0.68476,1.113512 1.685232,1.062839 2.688256,1.00488 0.095,1.224288 0.18999,2.448568 0.290243,3.795408 -0.416221,1.974943 -0.950362,3.768471 -2.595708,5.080876 z"
       id="path1406"
       style="stroke-width:0.264583" />
    <path
       fill="#b17e46"
       opacity="1"
       stroke="none"
       d="m 22.163695,43.141214 c 1.379244,0.977111 1.573707,2.379384 1.699136,3.847803 0.152318,1.783144 0.276471,3.585374 0.658325,5.325465 0.202782,0.924097 0.924783,1.734277 1.427967,2.685229 -0.879356,0.265383 -1.774261,0.441405 -2.780742,0.617517 -0.603549,-0.207926 -1.095507,-0.415946 -1.647266,-0.80717 -0.32217,-2.216862 -0.499727,-4.266276 -0.873832,-6.279163 -0.296915,-1.597607 0.05266,-3.529385 -1.911109,-4.461314 -0.159552,-0.07572 -0.125428,-0.559552 -0.181303,-0.853744 1.171086,-0.02801 2.342168,-0.05602 3.608824,-0.07462 z"
       id="path1408"
       style="stroke-width:0.264583" />
    <path
       fill="#ab703e"
       opacity="1"
       stroke="none"
       d="m 18.447934,43.18614 c 0.162812,0.323889 0.128688,0.80772 0.28824,0.883441 1.963769,0.931929 1.614194,2.863707 1.911109,4.461314 0.374105,2.012887 0.551662,4.062301 0.814613,6.210223 -0.738794,-0.398528 -1.478172,-0.91132 -2.29516,-1.467948 -0.824143,-1.936178 -1.570673,-3.828529 -2.388436,-5.789004 -0.130678,-0.740976 -0.190138,-1.413819 -0.343488,-2.151927 -0.09387,-0.526825 -0.09387,-0.98837 -0.09387,-1.743903 0.589304,-0.127262 1.29467,-0.279586 2.106993,-0.402196 z"
       id="path1410"
       style="stroke-width:0.264583" />
    <path
       fill="#efebe5"
       opacity="1"
       stroke="none"
       d="m 33.587546,45.424713 c 0.02138,0.01823 -0.0794,0.04726 -0.127206,0.02606 -2.65e-4,-0.06205 0.05085,-0.06973 0.127206,-0.02606 z"
       id="path1412"
       style="stroke-width:0.264583" />
    <path
       fill="#f4f0ea"
       opacity="1"
       stroke="none"
       d="m 29.338224,35.809903 c 0.950928,0.12867 0.786516,0.885293 0.833718,1.463376 0.01942,0.237752 -0.263033,0.500142 -0.366982,0.680022 0.05274,0.6492 0.151233,1.273278 0.142999,1.895951 -0.01289,0.977532 -0.05509,1.95934 -0.173747,2.92845 -0.04554,0.371965 -0.334991,0.714063 -0.606406,1.212459 -0.195191,0.368437 -0.29727,0.594191 -0.373912,0.763696 C 28.461437,44.57865 28.14563,44.412211 27.813253,44.162405 27.62977,43.956376 27.462855,43.833718 27.29594,43.71106 c 0.16433,-0.323252 0.328662,-0.646512 0.496384,-0.976426 -0.162782,-0.05051 -0.362219,-0.112382 -0.6238,-0.193538 0.157647,-0.218091 0.294008,-0.406736 0.525,-0.72631 -0.581245,-0.04898 -1.05473,-0.08887 -1.907474,-0.160719 0.527762,-0.410969 0.796901,-0.620538 1.170345,-0.749024 0.421888,0.205464 0.739423,0.32985 1.056976,0.454241 0.0281,-0.109444 0.0562,-0.218892 0.0843,-0.328337 -0.358037,-0.0741 -0.716074,-0.148204 -1.074095,-0.222303 0.255426,-0.732594 0.510839,-1.465188 0.70716,-2.02824 -0.234643,-0.513506 -0.436536,-0.955357 -0.638429,-1.397209 0.766376,-0.260411 0.584541,-1.854581 1.986071,-1.31051 0.109747,0.04999 0.129593,0.06245 0.149439,0.07491 -0.02917,-0.03397 -0.05833,-0.06794 -0.08748,-0.101907 0.02617,-0.0833 0.07353,-0.151948 0.197887,-0.235789 m -1.100304,2.223524 c 0,0 -0.02878,0.01683 0,0 m -0.281379,2.082625 c 0,0 0.02244,0.03463 0,0 z"
       id="path1414"
       style="stroke-width:0.264583" />
    <path
       fill="#ded6cb"
       opacity="1"
       stroke="none"
       d="m 27.206944,43.71211 c 0.255911,0.121608 0.422826,0.244266 0.494914,0.452845 -0.243671,0.09224 -0.392515,0.09855 -0.541374,0.104873 -0.110604,-0.144137 -0.221224,-0.288274 -0.36503,-0.492768 0.08536,-0.06155 0.203927,-0.06273 0.41149,-0.06495 z"
       id="path1416"
       style="stroke-width:0.264583" />
    <path
       fill="#ded6cb"
       opacity="1"
       stroke="none"
       d="m 23.947161,38.752797 c 0.0038,-0.06008 0.03663,-0.0928 0.06949,-0.125523 -0.01344,0.05096 -0.02692,0.10192 -0.06949,0.125523 z"
       id="path1418"
       style="stroke-width:0.264583" />
    <path
       fill="#ded6cb"
       opacity="1"
       stroke="none"
       d="m 26.376825,36.167704 c 0.0086,0.01434 -0.0086,-0.01434 0,0 z"
       id="path1420"
       style="stroke-width:0.264583" />
    <path
       fill="#ded6cb"
       opacity="1"
       stroke="none"
       d="m 24.642388,41.334763 c 0.02326,-0.0094 0.04782,-0.01714 0.03847,-0.01035 -0.03391,0.01455 -0.03714,0.01196 -0.03847,0.01035 z"
       id="path1422"
       style="stroke-width:0.264583" />
    <path
       fill="#ded6cb"
       opacity="1"
       stroke="none"
       d="m 22.671737,36.962552 c 0.0084,0.01423 -0.0084,-0.01423 0,0 z"
       id="path1424"
       style="stroke-width:0.264583" />
    <path
       fill="#e7e0d9"
       opacity="1"
       stroke="none"
       d="m 27.224886,44.352526 c 0.08446,-0.08902 0.233301,-0.09533 0.49354,-0.104209 0.427204,0.163894 0.743011,0.330333 1.075468,0.50554 0.07664,-0.169505 0.178721,-0.395259 0.314272,-0.695428 0.473535,0.291851 0.913609,0.658108 1.366779,1.105117 -0.116853,0.09642 -0.246787,0.112098 -0.469254,0.160819 -1.095573,0.091 -2.096045,0.141673 -2.780805,-0.971839 z"
       id="path1426"
       style="stroke-width:0.264583" />
    <path
       fill="#e7e0d9"
       opacity="1"
       stroke="none"
       d="m 27.02425,40.807927 c 0.357343,0.07482 0.71538,0.148916 1.073417,0.22302 -0.0281,0.109445 -0.0562,0.218893 -0.0843,0.328337 -0.317553,-0.124391 -0.635088,-0.248777 -0.96987,-0.46333 -0.01725,-0.09016 -0.01855,-0.08874 -0.01926,-0.08803 z"
       id="path1702"
       style="stroke-width:0.264583" />
    <path
       fill="#e7e0d9"
       opacity="1"
       stroke="none"
       d="m 29.140982,36.045205 c 0.0285,0.03446 0.05767,0.06843 0.08683,0.102394 -0.01984,-0.01246 -0.03969,-0.02492 -0.07238,-0.07079 -0.01284,-0.0334 -0.01381,-0.03209 -0.01445,-0.0316 z"
       id="path1704"
       style="stroke-width:0.264583" />
    <path
       fill="#e7e0d9"
       opacity="1"
       stroke="none"
       d="m 28.223532,38.041841 c -0.01439,0.0084 0.01439,-0.0084 0,0 z"
       id="path1706"
       style="stroke-width:0.264583" />
    <path
       fill="#e7e0d9"
       opacity="1"
       stroke="none"
       d="m 27.967764,40.133367 c 0.01122,0.0173 -0.01122,-0.0173 0,0 z"
       id="path1708"
       style="stroke-width:0.264583" />
  </g>
</svg>
