<?xml version="1.0" encoding="UTF-8" standalone="no"?>
<!-- Created with Inkscape (http://www.inkscape.org/) -->

<svg
   width="28.584196mm"
   height="38.322941mm"
   viewBox="0 0 28.584196 38.322941"
   version="1.1"
   id="svg2831"
   inkscape:version="1.2.2 (732a01da63, 2022-12-09)"
   sodipodi:docname="bg_button3.svg"
   xmlns:inkscape="http://www.inkscape.org/namespaces/inkscape"
   xmlns:sodipodi="http://sodipodi.sourceforge.net/DTD/sodipodi-0.dtd"
   xmlns="http://www.w3.org/2000/svg"
   xmlns:svg="http://www.w3.org/2000/svg">
  <sodipodi:namedview
     id="namedview2833"
     pagecolor="#ffffff"
     bordercolor="#000000"
     borderopacity="0.25"
     inkscape:showpageshadow="2"
     inkscape:pageopacity="0.0"
     inkscape:pagecheckerboard="0"
     inkscape:deskcolor="#d1d1d1"
     inkscape:document-units="mm"
     showgrid="false"
     inkscape:zoom="0.70199214"
     inkscape:cx="-284.19121"
     inkscape:cy="-172.3666"
     inkscape:window-width="2880"
     inkscape:window-height="1526"
     inkscape:window-x="5749"
     inkscape:window-y="-11"
     inkscape:window-maximized="1"
     inkscape:current-layer="layer1" />
  <defs
     id="defs2828" />
  <g
     inkscape:label="Ebene 1"
     inkscape:groupmode="layer"
     id="layer1"
     transform="translate(-180.56702,-194.16576)">
    <path
       fill="#483021"
       opacity="1"
       stroke="none"
       d="m 208.38475,194.23387 c 0.0901,0.006 0.18017,0.0114 0.339,0.0243 0.19478,0.71409 0.46992,1.43123 0.42195,2.12607 -0.25776,3.73444 -0.59591,7.46333 -0.93033,11.40161 -0.19989,2.22367 -0.37573,4.23986 -0.55158,6.25606 -0.17673,1.48536 -0.25705,2.99005 -0.5503,4.45204 -0.60481,3.01519 -2.40543,4.98669 -5.60312,5.79994 -0.29621,0.0495 -0.41306,0.0739 -0.59138,0.0914 -0.0615,-0.007 -0.18188,0.0214 -0.273,0.004 -0.21354,-0.0321 -0.33597,-0.0469 -0.48078,-0.15735 -1.56922,-0.37233 -3.11606,-0.64909 -4.12544,-0.82968 0.65929,-0.0808 1.87951,-0.23037 3.21646,-0.40305 3.92495,0.47958 6.07433,-2.2647 6.44036,-5.63284 0.63716,-5.8629 1.13232,-11.74124 1.78125,-17.6355 0.11104,-0.61893 0.12784,-1.21542 0.12966,-1.91292 0.002,-0.30405 0.0193,-0.50709 0.12941,-0.72778 0.33811,-0.61812 1.17295,-1.23218 -0.0389,-1.80349 -0.27039,0.007 -0.44999,0.0171 -0.71654,0.009 -0.20389,-0.004 -0.32081,0.009 -0.50651,0.0103 -0.12062,0.0626 -0.17247,0.13673 -0.33785,0.21687 -1.45462,-0.0667 -2.79495,-0.17558 -4.13696,-0.20345 -2.01168,-0.0418 -4.02454,-0.0267 -6.03552,-0.14447 5.3e-4,-0.39834 -2.6e-4,-0.68804 -0.001,-0.97773 1.86044,-0.0113 3.72086,-0.0225 5.78393,0.0671 2.34753,0.057 4.49243,0.0131 6.63733,-0.0308 m -0.63116,0.63675 c 0,0 -0.0243,0.0134 0,0 z"
       id="path96"
       style="stroke-width:0.264583" />
    <path
       fill="#282018"
       opacity="1"
       stroke="none"
       d="m 199.13949,223.02252 c -1.22021,0.14955 -2.44043,0.29911 -3.09972,0.37992 1.00938,0.18059 2.55622,0.45735 4.0028,0.84546 -3.89778,0.13657 -7.69527,0.16176 -11.49278,0.18697 -3.60443,-0.82266 -5.5905,-3.15925 -6.09277,-6.7373 -0.3962,-2.82239 -0.62377,-5.66845 -1.01622,-8.56921 -0.0684,-0.20671 -0.0467,-0.3482 -0.002,-0.65356 -0.0307,-0.90303 -0.0839,-1.64217 -0.13714,-2.38132 -0.0366,-0.708 -0.0733,-1.41598 0.003,-2.27691 0.18759,-0.25562 0.32667,-0.35854 0.32629,-0.46095 -0.007,-1.77874 0.0337,-3.56175 -0.0858,-5.33374 -0.0413,-0.61283 -0.0668,-0.92434 0.63569,-0.79021 0.11336,0.93163 0.23626,1.74532 0.30695,2.5635 0.28059,3.2475 0.54487,6.49638 0.80194,9.85816 0.40502,3.15988 0.66793,6.23855 1.28992,9.24286 0.51306,2.47816 2.35054,3.85414 4.60619,3.93338 0.57068,0.004 1.02918,-0.0175 1.60862,-0.0134 1.44888,0.0127 2.77682,-5.3e-4 4.22559,0.0109 1.45368,0.0816 2.78653,0.13852 4.11938,0.19543 z"
       id="path558"
       style="stroke-width:0.264583" />
    <path
       fill="#cbb292"
       opacity="1"
       stroke="none"
       d="m 188.54842,224.48033 c 3.79888,-0.0707 7.59637,-0.0959 11.51653,-0.13683 0.24507,-0.001 0.3675,0.0139 0.60514,0.083 0.11521,0.0542 0.23183,0.0669 0.23183,0.0669 0,0 0.0785,-0.10129 0.0785,-0.10129 0.11685,-0.0243 0.2337,-0.0486 0.43966,-0.0601 0.31041,0.46128 0.61891,0.88975 0.72776,1.36405 0.10252,0.44671 -0.005,0.9417 -0.0633,1.49553 -1.73808,0.86791 -3.43358,1.65574 -5.22873,2.45692 -1.95889,0.27847 -3.81809,0.54364 -5.80122,0.70266 -0.29898,-0.97596 -0.52744,-1.83936 -0.63253,-2.71755 -0.087,-0.72703 0.20507,-1.59976 -0.10721,-2.16817 -0.25603,-0.46603 -1.15449,-0.57912 -1.76817,-0.84865 0,0 2.6e-4,-0.091 0.002,-0.13643 z"
       id="path560"
       style="stroke-width:0.264583" />
    <path
       fill="#c5a67b"
       opacity="1"
       stroke="none"
       d="m 188.42878,224.6232 c 0.73162,0.26309 1.63008,0.37618 1.88611,0.84221 0.31228,0.56841 0.0202,1.44114 0.10721,2.16817 0.10509,0.87819 0.33355,1.74159 0.51208,2.717 -0.28972,0.18429 -0.58292,0.263 -0.96716,0.35106 -1.44811,-0.156 -2.82541,-0.23004 -4.15383,-0.52457 -0.67967,-0.15068 -1.36787,-0.59492 -1.88336,-1.08433 -1.04002,-0.98747 -0.92897,-2.3978 0.17938,-3.31354 1.21959,-1.00761 2.66851,-1.25017 4.31957,-1.156 z"
       id="path562"
       style="stroke-width:0.264583" />
    <path
       fill="#e9e6e5"
       opacity="1"
       stroke="none"
       d="m 180.63655,230.87643 c -0.009,-1.18242 -0.0136,-2.48457 0.0758,-3.81646 0.0389,1.21241 -0.0164,2.45458 -0.0758,3.81646 z"
       id="path566"
       style="stroke-width:0.264583" />
    <path
       fill="#e9e6e5"
       opacity="1"
       stroke="none"
       d="m 180.63595,232.4887 c -0.0435,-0.0641 -0.0837,-0.22011 -0.0636,-0.41786 0.0625,0.0808 0.0647,0.20339 0.0636,0.41786 z"
       id="path568"
       style="stroke-width:0.264583" />
    <path
       fill="#37241b"
       opacity="1"
       stroke="none"
       d="m 182.16644,197.11578 c -0.688,-0.0182 -0.66256,0.29327 -0.62124,0.9061 0.11945,1.77199 0.0791,3.555 0.0858,5.33374 2.7e-4,0.10241 -0.13869,0.20533 -0.30929,0.34372 -0.21806,-2.97257 -0.33969,-5.98086 -0.316,-9.10914 2.60297,-0.11931 5.06077,-0.10439 7.51812,-0.13073 0.4538,-0.005 0.90581,-0.1766 1.35864,-0.2713 1.94495,-0.009 3.8899,-0.0179 5.95794,-0.009 0.12395,0.30783 0.12479,0.59753 0.003,1.02014 -1.35873,0.1624 -2.59462,0.19188 -3.95156,0.18662 -2.24635,-0.0186 -4.37166,-0.002 -6.60701,-0.0168 -0.48917,-0.0161 -0.86831,-0.001 -1.34854,-0.0114 -0.58181,-0.0368 -1.0625,-0.0492 -1.63913,-0.034 -0.081,0.35492 -0.0662,0.68236 -0.0462,1.10856 -0.0247,0.29357 -0.0545,0.48839 -0.0843,0.68321 z"
       id="path572"
       style="stroke-width:0.264583" />
    <path
       fill="#21150c"
       opacity="1"
       stroke="none"
       d="m 189.75962,194.16614 c -0.32999,0.11673 -0.782,0.28845 -1.2358,0.29333 -2.45735,0.0263 -4.91515,0.0114 -7.49506,0.008 -0.12225,-0.002 -0.15651,-0.12901 -0.15203,-0.19446 2.923,-0.0867 5.84152,-0.10799 8.88289,-0.10723 z"
       id="path578"
       style="stroke-width:0.264583" />
    <path
       fill="#d0ba99"
       opacity="1"
       stroke="none"
       d="m 181.19851,206.14451 c 0.15595,0.68812 0.20919,1.42726 0.2224,2.25863 -0.13506,-0.67437 -0.23008,-1.44099 -0.2224,-2.25863 z"
       id="path580"
       style="stroke-width:0.264583" />
    <path
       fill="#21150c"
       opacity="1"
       stroke="none"
       d="m 208.26446,194.20509 c -2.0246,0.0727 -4.16951,0.11655 -6.39515,0.0865 2.03778,-0.0877 4.15632,-0.1015 6.39515,-0.0865 z"
       id="path594"
       style="stroke-width:0.264583" />
    <path
       fill="#e7e0d9"
       opacity="1"
       stroke="none"
       d="m 199.25623,222.99939 c -1.44959,-0.0338 -2.78244,-0.0907 -4.22676,-0.27049 -0.0283,-0.50523 0.0549,-0.88754 0.22462,-1.29294 0.2032,-0.0441 0.31994,-0.0651 0.52253,-0.0582 0.20457,0.0146 0.32328,0.001 0.56083,0.0155 0.6903,0.0233 1.26218,0.0317 1.83314,0.0125 3.16323,-0.10637 5.05063,-1.35668 5.63708,-4.45735 0.64066,-3.38706 0.7941,-6.86626 1.23729,-10.37126 0.19885,-0.56654 0.38162,-1.06131 0.42982,-1.56887 0.12379,-1.30326 0.18786,-2.61218 0.32131,-4.01883 0.19117,-1.446 0.33685,-2.79199 0.48416,-4.23738 0.26385,-0.54575 0.52603,-0.99214 0.78822,-1.43853 0.17958,-0.01 0.35918,-0.0193 0.64581,0.0755 0.0479,0.64259 -0.0112,1.18074 -0.0703,1.71888 -0.0171,0.20306 -0.0343,0.4061 -0.0611,0.8112 -0.0728,0.74611 -0.13607,1.29019 -0.1993,1.83427 -0.55468,5.87186 -1.04984,11.7502 -1.687,17.6131 -0.36603,3.36814 -2.51541,6.11242 -6.44036,5.63284 z"
       id="path664"
       style="stroke-width:0.264583" />
    <path
       fill="#eeece9"
       opacity="1"
       stroke="none"
       d="m 206.9815,195.29605 c -0.17522,0.46394 -0.4374,0.91033 -0.80822,1.45535 -4.06229,-0.12263 -4.29084,0.34694 -4.12889,3.62951 0.0107,0.21743 0.0107,0.43538 -0.0852,0.66506 -0.30385,0.0239 -0.50678,0.0358 -0.83324,0.0422 -1.89004,-0.01 -3.65655,-0.0142 -5.48672,-0.0288 -0.0637,-0.0102 -0.18882,-0.0414 -0.19336,-0.15858 0.15935,-1.73821 0.32324,-3.35918 0.50033,-5.11079 -0.66136,0 -1.40029,0.0473 -2.12995,-0.0146 -0.60684,-0.0515 -1.20277,-0.2314 -1.80354,-0.35442 1.23589,-0.0295 2.47178,-0.059 3.82915,-0.11272 2.13382,-0.0152 4.14668,-0.0302 6.15836,0.0116 1.34201,0.0279 2.68234,0.13678 4.19597,0.18728 0.24781,-0.0601 0.30615,-0.11576 0.3476,-0.18912 0.11694,-0.0131 0.23386,-0.0263 0.43775,-0.0219 z"
       id="path666"
       style="stroke-width:0.264583" />
    <path
       fill="#2e1d15"
       opacity="1"
       stroke="none"
       d="m 207.73691,197.09035 c -0.0338,-0.52051 0.0253,-1.05866 0.0682,-1.69903 1.10478,0.46685 0.26994,1.08092 -0.0682,1.69903 z"
       id="path668"
       style="stroke-width:0.264583" />
    <path
       fill="#2e1d15"
       opacity="1"
       stroke="none"
       d="m 207.47784,199.73105 c -0.031,-0.52168 0.0322,-1.06576 0.12005,-1.71088 0.008,0.49546 -0.009,1.09196 -0.12005,1.71088 z"
       id="path670"
       style="stroke-width:0.264583" />
    <path
       fill="#dfccb1"
       opacity="1"
       stroke="none"
       d="m 200.91899,224.38532 c 0.0615,0.007 -0.0171,0.10804 -0.0171,0.10804 0,0 -0.11662,-0.0127 -0.14072,-0.0496 -0.0241,-0.037 0.0963,-0.0651 0.15779,-0.0584 z"
       id="path672"
       style="stroke-width:0.264583" />
    <path
       fill="#2e1d15"
       opacity="1"
       stroke="none"
       d="m 207.74145,194.87734 c -0.0121,0.007 0.0122,-0.007 0,0 z"
       id="path674"
       style="stroke-width:0.264583" />
    <path
       fill="#e7e0d9"
       opacity="1"
       stroke="none"
       d="m 206.47499,195.30632 c 0.0273,0.085 -0.031,0.14062 -0.1653,0.19472 -0.007,-0.058 0.0447,-0.13213 0.1653,-0.19472 z"
       id="path676"
       style="stroke-width:0.264583" />
    <path
       fill="#d5cfc7"
       opacity="1"
       stroke="none"
       d="m 195.16761,221.45905 c -0.0832,0.38231 -0.16639,0.76462 -0.25897,1.24514 -1.3373,0.11141 -2.66524,0.12462 -4.17957,0.0377 -0.67604,-0.0462 -1.1657,0.008 -1.65536,0.0617 -2.14346,-0.0533 -3.98095,-1.42927 -4.494,-3.90743 -0.622,-3.00431 -0.88491,-6.08298 -1.22351,-9.32545 0.17667,-1.0122 0.27366,-1.82841 0.40304,-2.91728 0.51885,0.66874 0.76615,0.98747 1.04263,1.41839 0.39498,2.94092 0.67489,5.78427 1.15251,8.59402 0.41586,2.44637 1.82301,4.86372 5.30791,4.71156 0.93181,0.011 1.75951,-0.007 2.6961,-0.005 0.47566,0.0423 0.84244,0.0647 1.20922,0.0871 z"
       id="path1078"
       style="stroke-width:0.264583" />
    <path
       fill="#dedad5"
       opacity="1"
       stroke="none"
       d="m 184.77269,207.95968 c -0.2473,-0.31875 -0.4946,-0.63748 -1.01345,-1.30622 -0.12938,1.08887 -0.22637,1.90508 -0.38978,2.80388 -0.33674,-3.16579 -0.60102,-6.41467 -0.88161,-9.66217 -0.0707,-0.81818 -0.19359,-1.63187 -0.30696,-2.5635 0.0154,-0.31071 0.0452,-0.50552 0.094,-0.90197 0.052,-0.47881 0.085,-0.75601 0.11799,-1.03318 0.48071,0.0123 0.9614,0.0246 1.54631,0.17762 0.19736,1.96491 0.29052,3.78914 0.37731,5.73384 0.14957,1.88481 0.30552,3.64916 0.4384,5.52345 -0.009,0.4827 0.004,0.85549 0.0178,1.22825 z"
       id="path1080"
       style="stroke-width:0.264583" />
    <path
       fill="#e7e0d9"
       opacity="1"
       stroke="none"
       d="m 189.1859,222.82957 c 0.37747,-0.0799 0.86713,-0.13389 1.42223,-0.11356 -0.39305,0.096 -0.85155,0.11778 -1.42223,0.11356 z"
       id="path1082"
       style="stroke-width:0.264583" />
    <path
       fill="#c8c4bc"
       opacity="1"
       stroke="none"
       d="m 184.32286,201.08752 c -0.0932,-1.82424 -0.18632,-3.64847 -0.28259,-5.58884 0.37603,-0.13074 0.75518,-0.14534 1.28648,-0.0403 0.5657,0.19209 0.97802,0.31762 1.39298,0.32705 1.26556,0.0288 2.53235,0.0275 3.79823,0.009 0.74059,-0.011 0.976,0.21837 0.84798,1.02139 -0.22254,1.39586 -0.28417,2.81736 -0.53842,4.24255 -2.25168,0.0195 -4.37816,0.0244 -6.50466,0.0294 z"
       id="path1088"
       style="stroke-width:0.264583" />
    <path
       fill="#dedad5"
       opacity="1"
       stroke="none"
       d="m 190.95268,201.04366 c 0.12909,-1.41075 0.19072,-2.83226 0.41326,-4.22811 0.12802,-0.80303 -0.10739,-1.03234 -0.84798,-1.02139 -1.26588,0.0187 -2.53267,0.02 -3.79823,-0.009 -0.41496,-0.009 -0.82728,-0.13496 -1.28294,-0.29642 2.08318,-0.10519 4.20849,-0.12139 6.45484,-0.10287 0.72181,0.15778 1.31774,0.33764 1.92458,0.38918 0.72966,0.0619 1.46859,0.0147 2.12995,0.0147 -0.17709,1.7516 -0.34098,3.37258 -0.62325,5.13151 -1.18889,0.14593 -2.25938,0.15385 -3.43407,0.15636 -0.38151,-0.015 -0.65883,-0.0246 -0.93616,-0.0342 z"
       id="path1090"
       style="stroke-width:0.264583" />
    <path
       fill="#282018"
       opacity="1"
       stroke="none"
       d="m 182.29695,195.32402 c 0.0629,0.24967 0.0299,0.52687 -0.0272,0.90692 -0.039,-0.22457 -0.0538,-0.552 0.0272,-0.90692 z"
       id="path1092"
       style="stroke-width:0.264583" />
    <path
       fill="#37241b"
       opacity="1"
       stroke="none"
       d="m 204.96758,206.64316 c -0.36581,3.43905 -0.51925,6.91825 -1.15991,10.30531 -0.58645,3.10067 -2.47385,4.35098 -5.63708,4.45735 -0.57096,0.0192 -1.14284,0.0107 -1.83282,-0.12139 -0.11752,-1.88674 -0.11653,-3.63704 -0.0557,-5.45579 1.93203,-0.77359 3.38941,-1.96349 3.86924,-3.95147 0.40869,-1.69327 0.5558,-3.44971 0.9417,-5.19793 1.37356,-0.0252 2.62404,-0.0306 3.87453,-0.0361 z"
       id="path1162"
       style="stroke-width:0.264583" />
    <path
       fill="#21150c"
       opacity="1"
       stroke="none"
       d="m 196.22223,215.89708 c -0.001,1.75031 -0.002,3.50061 -0.003,5.35978 -0.11905,0.12219 -0.23775,0.13549 -0.47592,0.0345 -0.71081,-0.056 -1.30216,0.002 -1.89352,0.0607 -0.8277,0.0182 -1.65541,0.0364 -2.57513,-0.096 0.0897,-2.15066 0.27147,-4.15075 0.55083,-6.13722 1.42945,0.83805 2.90218,0.87036 4.39702,0.77831 z"
       id="path1164"
       style="stroke-width:0.264583" />
    <path
       fill="#ddcaac"
       opacity="1"
       stroke="none"
       d="m 205.04496,206.57721 c -1.32787,0.0714 -2.57835,0.0768 -4.01301,0.079 -0.18417,-0.003 -0.30579,-0.0511 -0.28869,-0.15784 0.0935,-0.82919 0.1785,-1.55087 0.24418,-2.27431 0.0947,-1.0428 0.17535,-2.0869 0.262,-3.13044 0.20293,-0.0119 0.40586,-0.0238 0.83084,-0.0346 1.37147,0.0109 2.52089,0.0207 3.67031,0.0304 -0.0879,1.30665 -0.15202,2.61557 -0.27581,3.91883 -0.0482,0.50756 -0.23097,1.00233 -0.42982,1.56887 z"
       id="path1166"
       style="stroke-width:0.264583" />
    <path
       fill="#faf9f8"
       opacity="1"
       stroke="none"
       d="m 205.79609,200.98951 c -1.19492,0.0902 -2.34434,0.0805 -3.61489,0.0576 -0.12611,-0.23079 -0.12609,-0.44874 -0.13681,-0.66617 -0.16195,-3.28257 0.0666,-3.75214 4.12723,-3.53013 -0.0387,1.34674 -0.18436,2.69273 -0.37553,4.13873 z"
       id="path1168"
       style="stroke-width:0.264583" />
    <path
       fill="#120b09"
       opacity="1"
       stroke="none"
       d="m 193.95839,221.37197 c 0.48247,-0.0783 1.07383,-0.13663 1.69878,-0.10852 -0.0831,0.10744 -0.19988,0.12844 -0.40308,0.17252 -0.45326,8e-4 -0.82004,-0.0217 -1.2957,-0.064 z"
       id="path1170"
       style="stroke-width:0.264583" />
    <path
       fill="#d5bfa1"
       opacity="1"
       stroke="none"
       d="m 201.1259,201.08813 c 0.0369,1.04904 -0.0438,2.09314 -0.13846,3.13594 -0.0657,0.72344 -0.1507,1.44512 -0.36664,2.29639 -3.05624,0.10019 -5.97293,0.0715 -8.85295,-0.0522 0.84051,-0.18279 1.65473,-0.21997 2.44344,-0.38154 0.34209,-0.0701 0.86107,-0.35522 0.9072,-0.61293 0.26068,-1.45624 0.40224,-2.93383 0.58436,-4.40414 1.76651,0.004 3.53302,0.009 5.42305,0.0185 z"
       id="path1172"
       style="stroke-width:0.264583" />
    <path
       fill="#cbb292"
       opacity="1"
       stroke="none"
       d="m 195.63919,201.05936 c -0.11846,1.48056 -0.26002,2.95815 -0.5207,4.41439 -0.0461,0.25771 -0.56511,0.54286 -0.9072,0.61293 -0.78871,0.16157 -1.60293,0.19875 -2.56024,0.40574 -1.13231,0.13816 -2.11116,0.15694 -3.20911,0.1551 -0.92119,-0.0483 -1.72328,-0.0761 -2.4883,-0.19783 1.49957,-0.17566 2.96127,-0.28457 4.4249,-0.32653 0.64737,-0.0185 1.06225,-0.0962 1.12156,-0.89711 0.10261,-1.38548 0.32234,-2.7623 0.49293,-4.14276 1.0705,-0.008 2.14099,-0.0159 3.33442,-0.0445 0.12292,-0.0207 0.24807,0.0104 0.31174,0.0206 z"
       id="path1174"
       style="stroke-width:0.264583" />
    <path
       fill="#120b09"
       opacity="1"
       stroke="none"
       d="m 185.91657,206.5437 c 0.80209,0.0277 1.60418,0.0555 2.52224,0.2228 0.26953,1.5169 0.146,3.00681 0.64815,4.24244 0.60101,1.47887 1.73658,2.74052 2.64063,4.09623 -0.18175,2.00007 -0.36349,4.00016 -0.55732,6.12167 -3.39288,0.30275 -4.80003,-2.1146 -5.21589,-4.56097 -0.47762,-2.80975 -0.75753,-5.6531 -1.15251,-8.59402 -0.0428,-0.48493 -0.0564,-0.85772 0.0673,-1.34659 0.44069,-0.13795 0.74405,-0.15975 1.04743,-0.18156 z"
       id="path1576"
       style="stroke-width:0.264583" />
    <path
       fill="#bfa488"
       opacity="1"
       stroke="none"
       d="m 185.95364,206.44969 c -0.34045,0.11582 -0.64381,0.13762 -1.06144,0.16563 -0.27019,-1.75818 -0.42614,-3.52253 -0.5757,-5.40734 2.13286,-0.12545 4.25934,-0.13044 6.51102,-0.14988 0.40249,-0.005 0.67981,0.005 1.06132,0.0198 -0.0664,1.38589 -0.28613,2.76271 -0.38874,4.14819 -0.0593,0.80087 -0.47419,0.87856 -1.12156,0.89711 -1.46363,0.042 -2.92533,0.15087 -4.4249,0.32653 z"
       id="path1578"
       style="stroke-width:0.264583" />
    <path
       fill="#010000"
       opacity="1"
       stroke="none"
       d="m 191.82521,215.11877 c -1.00167,-1.36931 -2.13724,-2.63096 -2.73825,-4.10983 -0.50215,-1.23563 -0.37862,-2.72554 -0.52905,-4.22183 0.98198,-0.13775 1.96083,-0.15653 3.05648,-0.19954 3.03348,0.004 5.95017,0.0331 8.9893,0.0396 0.12247,-0.0221 0.24409,0.0258 0.30519,0.0488 -0.20173,1.75149 -0.34884,3.50793 -0.75753,5.2012 -0.47983,1.98798 -1.93721,3.17788 -3.86924,3.95147 -1.55473,0.16049 -3.02746,0.12818 -4.4569,-0.70987 z"
       id="path1626"
       style="stroke-width:0.264583" />
  </g>
</svg>
