<?xml version="1.0" encoding="UTF-8" standalone="no"?>
<!-- Created with Inkscape (http://www.inkscape.org/) -->

<svg
   width="28.550112mm"
   height="39.59549mm"
   viewBox="0 0 28.550112 39.59549"
   version="1.1"
   id="svg1977"
   inkscape:version="1.2.2 (732a01da63, 2022-12-09)"
   sodipodi:docname="bg_button5.svg"
   xmlns:inkscape="http://www.inkscape.org/namespaces/inkscape"
   xmlns:sodipodi="http://sodipodi.sourceforge.net/DTD/sodipodi-0.dtd"
   xmlns="http://www.w3.org/2000/svg"
   xmlns:svg="http://www.w3.org/2000/svg">
  <sodipodi:namedview
     id="namedview1979"
     pagecolor="#ffffff"
     bordercolor="#000000"
     borderopacity="0.25"
     inkscape:showpageshadow="2"
     inkscape:pageopacity="0.0"
     inkscape:pagecheckerboard="0"
     inkscape:deskcolor="#d1d1d1"
     inkscape:document-units="mm"
     showgrid="false"
     inkscape:zoom="2.8079686"
     inkscape:cx="-67.130381"
     inkscape:cy="84.046525"
     inkscape:window-width="2880"
     inkscape:window-height="1526"
     inkscape:window-x="5749"
     inkscape:window-y="-11"
     inkscape:window-maximized="1"
     inkscape:current-layer="layer1" />
  <defs
     id="defs1974" />
  <g
     inkscape:label="Ebene 1"
     inkscape:groupmode="layer"
     id="layer1"
     transform="translate(-113.41652,-117.70635)">
    <path
       fill="#492914"
       opacity="1"
       stroke="none"
       d="m 141.57415,120.5189 c 0.007,0.64043 0.0144,1.28086 0.0345,2.13837 0.005,1.54109 -0.004,2.86511 -0.0657,4.24062 -0.14559,0.0844 -0.2378,0.11732 -0.32999,0.15024 -0.01,-0.0409 -0.0276,-0.0818 -0.0276,-0.12274 -0.002,-1.20377 -0.001,-2.40753 -0.001,-3.61129 -0.13064,0.008 -0.26129,0.0164 -0.39194,0.0247 -0.23256,1.17473 -0.46512,2.34946 -0.7868,3.47124 0.067,-1.786 0.22305,-3.51906 0.3756,-5.32669 -0.0923,-0.0822 -0.18102,-0.0898 -0.38643,-0.10172 -0.73851,-2.6e-4 -1.36034,0.004 -2.09953,-0.0266 -0.93066,-0.0214 -1.74395,-0.008 -2.67918,-0.007 -1.35291,0.005 -2.58385,0.0207 -3.89033,0.012 -0.12526,-0.006 -0.17496,0.012 -0.29466,0.0159 -0.11345,-0.0341 -0.15691,-0.0537 -0.25559,-0.1412 -0.3644,-0.14993 -0.67356,-0.23197 -0.79992,-0.26551 0.1022,-0.15437 0.24087,-0.36382 0.50185,-0.5691 2.18841,0.0386 4.2547,0.098 6.32053,0.0847 0.38244,-0.002 0.76298,-0.29851 1.1444,-0.45906 0.7349,0.15554 1.46979,0.31108 2.43406,0.47176 0.55224,0.0105 0.87511,0.0158 1.19797,0.0212 z"
       id="path424"
       style="stroke-width:0.264583" />
    <path
       fill="#eee5d9"
       opacity="1"
       stroke="none"
       d="m 137.84605,119.96895 c -0.28535,0.21758 -0.66589,0.51363 -1.04833,0.51609 -2.06582,0.0133 -4.13211,-0.0462 -6.34036,-0.12405 -0.19062,-0.0781 -0.24439,-0.0993 -0.30345,-0.10708 0.0644,-0.11688 0.1289,-0.23376 0.23667,-0.40578 2.482,-0.0155 4.92071,0.0242 7.45547,0.12082 z"
       id="path426"
       style="stroke-width:0.264583" />
    <path
       fill="#6f431f"
       opacity="1"
       stroke="none"
       d="m 141.58142,117.7064 c 0.0729,0.53174 0.0902,1.15109 0.12251,1.88616 -0.0121,0.33497 -0.0391,0.5542 -0.098,0.84989 -0.35468,0.0711 -0.67755,0.0658 -1.12095,0.0513 1.54947,-0.35226 0.746,-1.76307 1.0964,-2.7874 z"
       id="path430"
       style="stroke-width:0.264583" />
    <path
       fill="#99451e"
       opacity="1"
       stroke="none"
       d="m 114.07139,153.84552 c 1.83037,-0.96616 3.6581,-1.93094 5.705,-2.90571 3.03802,-0.0206 5.85687,-0.0313 8.79992,-0.025 1.36611,0.0111 2.608,0.005 3.9705,0.0116 1.45811,-0.15896 2.79561,-0.33007 4.1331,-0.5012 -1.41697,2.34992 -3.52786,3.81688 -6.05002,4.76577 -3.81058,1.43359 -7.78942,1.92736 -11.82143,2.0819 -1.64533,0.0631 -3.29507,0.0112 -5.08805,-0.0428 -0.45042,-0.82674 -0.10282,-2.69786 0.35098,-3.38456 z"
       id="path512"
       style="fill:#004455;stroke-width:0.264583"
       sodipodi:nodetypes="cccccsscc" />
    <path
       fill="#3c281e"
       opacity="1"
       stroke="none"
       d="m 136.7556,150.37686 c -1.41318,0.2194 -2.75068,0.39051 -4.27394,0.4818 -0.47383,-0.1367 -0.88255,-0.0947 -1.02609,-0.26996 -0.35289,-0.43081 -1.52723,-0.77869 -0.29281,-1.48259 0.18519,0.12754 0.33402,0.18198 0.59712,0.23873 0.59861,-0.13825 1.08295,-0.27881 1.65003,-0.45666 3.14137,-0.42894 5.58343,-2.58591 5.87872,-5.72529 0.3103,-3.29919 0.18161,-6.63966 0.26182,-10.08455 0.19525,-2.07196 0.37346,-4.02147 0.55655,-5.84631 0.0131,1.92075 -0.0827,3.72465 0.0514,5.51131 0.27689,3.69131 0.67621,7.37342 1.02517,11.05933 -0.34862,2.91034 -2.05445,4.91552 -4.42793,6.57419 z"
       id="path514"
       style="stroke-width:0.264583" />
    <path
       fill="#6f431f"
       opacity="1"
       stroke="none"
       d="m 141.24597,143.84419 c -0.4114,-3.72743 -0.81072,-7.40954 -1.08761,-11.10085 -0.13402,-1.78666 -0.0382,-3.59056 -0.0448,-5.57271 0.002,-0.18606 -0.019,-0.30767 -0.019,-0.30767 0.23255,-1.17473 0.46511,-2.34946 0.69767,-3.52419 0.13065,-0.008 0.2613,-0.0165 0.39194,-0.0247 0,1.20376 -2.6e-4,2.40752 0.001,3.61129 5e-5,0.0409 0.018,0.0818 0.0276,0.12274 0.0922,-0.0329 0.1844,-0.0658 0.36216,-0.0294 0.0861,2.906 0.0866,5.74267 0.0196,8.6642 -0.0217,2.30739 0.0242,4.52992 0.07,6.75246 0.003,0.62831 0.006,1.25661 -0.012,1.99996 -0.1283,-0.10652 -0.23633,-0.32807 -0.40678,-0.59114 z"
       id="path516"
       style="stroke-width:0.264583" />
    <path
       fill="#d5bfa1"
       opacity="1"
       stroke="none"
       d="m 113.41652,145.4338 c 0.0503,0.14641 0.0841,0.40985 0.0798,0.74788 -0.0575,-0.16056 -0.0769,-0.3957 -0.0798,-0.74788 z"
       id="path606"
       style="stroke-width:0.264583" />
    <path
       fill="#f4f0ea"
       opacity="1"
       stroke="none"
       d="m 141.66224,135.59807 c -5.3e-4,-2.83668 -0.001,-5.67336 -0.0337,-8.63086 -0.0237,-1.44483 -0.0153,-2.76885 0.0155,-4.21375 0.12075,0.32914 0.30097,0.77852 0.30454,1.22929 0.0257,3.25548 0.0157,6.51124 0.0179,9.89081 -10e-4,1.0128 -0.003,1.90169 -0.0593,2.91156 -0.0546,0.12097 -0.16535,0.1169 -0.1813,0.009 -0.0318,-0.47065 -0.0477,-0.83331 -0.0636,-1.19597 z"
       id="path726"
       style="stroke-width:0.264583" />
    <path
       fill="#502f1a"
       opacity="1"
       stroke="none"
       d="m 141.59473,135.68291 c 0.0834,0.27782 0.0993,0.64047 0.10928,1.21023 0.008,0.40862 0.0225,0.61014 0.0368,0.81166 -0.0132,1.49707 -0.0265,2.99413 -0.0579,4.61089 -0.064,-2.10285 -0.10986,-4.32539 -0.0882,-6.63278 z"
       id="path728"
       style="stroke-width:0.264583" />
    <path
       fill="#e1dace"
       opacity="1"
       stroke="none"
       d="m 141.82191,137.68765 c -0.0954,-0.18437 -0.10959,-0.38589 -0.10196,-0.68652 0.0219,-0.0991 0.13265,-0.095 0.18807,-0.095 0.0353,0.25483 0.0151,0.50959 -0.0861,0.78149 z"
       id="path732"
       style="stroke-width:0.264583" />
    <path
       fill="#150c0a"
       opacity="1"
       stroke="none"
       d="m 128.4521,150.89789 c -2.81884,0.0106 -5.63769,0.0213 -8.57982,0.0325 -0.65615,-0.29006 -1.20034,-0.56194 -1.71999,-0.87459 -2.43256,-1.46361 -3.90363,-3.56376 -3.93583,-6.45055 -0.0546,-4.89089 -0.0129,-9.78286 -0.0121,-14.67437 5.3e-4,-2.84544 8e-5,-5.69088 8e-5,-8.68681 4.8115,0 9.80952,0 14.95658,0.0484 0.22607,0.0363 0.3031,0.0243 0.38013,0.0122 0.13709,0.002 0.27419,0.004 0.51202,-0.0225 0.1598,-0.0206 0.21358,5.3e-4 0.2819,0.0746 -0.11885,0.24879 -0.25752,0.45825 -0.35973,0.61262 0.12637,0.0335 0.43553,0.11558 0.68123,0.29325 -1.99591,0.12923 -3.92835,0.16282 -5.97872,0.15677 -1.10464,-0.0245 -2.09137,-0.009 -3.19884,-0.0227 -1.29405,0.0337 -2.46736,0.0958 -3.72414,0.11301 -0.86224,-0.045 -1.64102,-0.045 -2.45968,-0.045 0,0.5884 -0.0153,1.15171 0.002,1.71399 0.15617,4.96743 0.3119,9.9349 0.48187,14.90188 0.0601,1.75591 0.0214,3.53037 0.27107,5.26129 0.42876,2.97273 2.54705,5.04509 5.34509,5.45418 0.0634,0.018 0.19227,-0.01 0.29771,0.0128 1.62346,0.05 3.14146,0.0772 4.62246,0.19545 -0.75816,0.23336 -1.47929,0.37559 -2.41031,0.55923 0.39528,0.25582 0.58514,0.45783 0.81026,0.51124 1.2407,0.29438 2.49002,0.55247 3.73638,0.82301 z"
       id="path986"
       style="stroke-width:0.264583" />
    <path
       fill="#492914"
       opacity="1"
       stroke="none"
       d="m 129.47247,120.27962 c -0.008,0.0372 -0.0854,0.0492 -0.18838,0.0246 0.0226,-0.041 0.0711,-0.0454 0.18838,-0.0246 z"
       id="path988"
       style="stroke-width:0.264583" />
    <path
       fill="#faf9f8"
       opacity="1"
       stroke="none"
       d="m 124.79577,121.45909 c 1.93245,-0.0336 3.86489,-0.0672 5.91603,-0.12854 0.16214,-0.008 0.2056,0.0115 0.34557,0.0901 0.1789,0.0275 0.26129,-0.004 0.34367,-0.0356 1.23095,-0.0161 2.46189,-0.0321 3.90182,0.0263 1.03573,0.11983 1.86247,0.16521 2.68934,0.33089 -0.0857,2.83006 -0.19349,5.53937 -0.25043,8.24973 -0.044,2.09435 -0.0157,2.09495 -1.96615,2.66763 -0.29526,0.005 -0.49256,-0.006 -0.74415,-0.0712 -0.2828,-0.0166 -0.51133,0.0222 -0.8506,0.0772 -0.87027,-0.0968 -1.16871,0.17371 -1.23655,0.99594 -0.22066,2.67434 -0.9073,5.17221 -3.27604,6.94457 -1.16017,0.21849 -2.2228,0.41414 -3.3574,0.57815 -0.12045,-0.0516 -0.16891,-0.0716 -0.14598,-0.15019 1.51446,-0.25898 2.3522,-1.07205 2.57196,-2.51856 0.15675,-1.03178 0.27143,-2.07336 0.49444,-3.09093 0.41855,-1.90996 1.05912,-3.78479 1.31573,-5.71304 0.276,-2.07393 0.26449,-4.19239 0.26595,-6.29151 2.6e-4,-0.44193 -0.48812,-0.88421 -0.65996,-1.32736 0.22304,-0.008 0.35811,-5.3e-4 0.48488,-0.0294 0.0649,-0.0147 0.11492,-0.0947 0.26766,-0.23055 -1.32604,0 -2.54488,0 -3.87746,-0.002 -0.81993,-0.12511 -1.52613,-0.24851 -2.23233,-0.37192 z"
       id="path990"
       style="stroke-width:0.264583" />
    <path
       fill="#ede4d8"
       opacity="1"
       stroke="none"
       d="m 135.87356,132.64466 c 1.85252,-0.55777 1.82422,-0.55837 1.86821,-2.65272 0.0569,-2.71037 0.1647,-5.41967 0.26001,-8.30763 0.009,-0.17819 0.0106,-0.29491 0.0106,-0.29491 0.62182,-0.004 1.24365,-0.008 2.01864,0.0336 0.21297,0.0912 0.27975,0.12086 0.35349,0.13489 -0.15609,1.73305 -0.31216,3.46611 -0.37913,5.25211 0.0891,0.053 0.10983,0.17456 0.10328,0.23596 -0.18476,2.0109 -0.36297,3.96041 -0.64006,6.04472 -0.45211,0.39042 -0.80532,0.64602 -1.17635,0.789 0.0628,-0.92643 -0.20375,-1.34839 -1.1171,-1.20126 -0.42113,0.0678 -0.86697,-0.0178 -1.3016,-0.0338 z"
       id="path992"
       style="stroke-width:0.264583" />
    <path
       fill="#dacab0"
       opacity="1"
       stroke="none"
       d="m 137.89502,121.35499 c 0.11737,0.0344 0.1162,0.15113 0.10662,0.20902 -0.83631,0.0125 -1.66305,-0.0329 -2.57682,-0.14133 0.72626,-0.0761 1.53954,-0.0891 2.4702,-0.0677 z"
       id="path994"
       style="stroke-width:0.264583" />
    <path
       fill="#dacab0"
       opacity="1"
       stroke="none"
       d="m 131.32551,121.36018 c -0.007,0.0564 -0.0892,0.0879 -0.19814,0.075 0.0232,-0.0629 0.0729,-0.0814 0.19814,-0.075 z"
       id="path996"
       style="stroke-width:0.264583" />
    <path
       fill="#dacab0"
       opacity="1"
       stroke="none"
       d="m 140.38098,121.48331 c -0.0702,0.0606 -0.13698,0.0309 -0.23326,-0.0559 0.0522,-0.0338 0.14098,-0.0262 0.23326,0.0559 z"
       id="path998"
       style="stroke-width:0.264583" />
    <path
       fill="#21150c"
       opacity="1"
       stroke="none"
       d="m 128.57631,150.91477 c -1.37057,-0.28741 -2.61988,-0.5455 -3.86058,-0.83988 -0.22513,-0.0534 -0.41498,-0.25542 -0.81026,-0.51125 0.93101,-0.18363 1.65215,-0.32587 2.4769,-0.58458 0.14802,-0.13337 0.19241,-0.15029 0.35125,-0.14672 0.65578,0.0103 1.19714,1.7e-4 1.84648,0.0158 0.47624,0.0142 0.84451,0.003 1.32233,0.0162 0.47864,0.0644 0.84771,0.1034 1.22184,0.14809 0.005,0.006 0.002,0.0205 0.002,0.0205 -1.19806,0.777 -0.0237,1.12489 0.32917,1.55569 0.14354,0.17523 0.55226,0.13327 0.90549,0.2578 -1.17674,0.0735 -2.41863,0.0793 -3.78474,0.0683 z"
       id="path1048"
       style="stroke-width:0.264583" />
    <path
       fill="#e1dace"
       opacity="1"
       stroke="none"
       d="m 128.47211,148.82236 c -0.54135,0.0102 -1.08271,0.0203 -1.73953,-0.11121 -0.11918,-0.54588 -0.12289,-0.95009 -0.0207,-1.37431 1.00897,-0.0546 1.91203,-0.0892 2.88172,-0.1037 0.11207,0.0109 0.15753,0.002 0.32085,0.0137 0.83542,0.0304 1.55299,0.0394 2.29699,0.0793 0.0264,0.0309 0.13878,0.0396 0.13878,0.0396 0,0 0.083,-0.0849 0.18004,-0.10792 0.6581,-0.26528 1.24929,-0.45525 1.77501,-0.75866 2.46798,-1.42429 3.37647,-3.80564 3.96485,-6.49167 0.076,-1.77412 0.0586,-3.48467 0.0212,-5.29676 -0.007,-0.30716 0.006,-0.5128 0.0187,-0.71844 0.35322,-0.25561 0.70643,-0.51121 1.14149,-0.77917 0.0187,3.31008 0.14737,6.65055 -0.16293,9.94974 -0.2953,3.13938 -2.73736,5.29635 -6.00004,5.71342 -0.67687,0.0649 -1.14968,0.10443 -1.68491,0.10524 -0.2031,-0.0174 -0.34379,0.004 -0.48447,0.0253 -0.36907,-0.039 -0.73814,-0.0781 -1.23641,-0.23767 -0.63246,-0.62379 -1.08428,-0.74776 -1.41069,0.0532 z"
       id="path1050"
       style="stroke-width:0.264583" />
    <path
       fill="#21150c"
       opacity="1"
       stroke="none"
       d="m 131.66609,149.02024 c 0.47282,-0.0395 0.94563,-0.079 1.53976,-0.10664 -0.36302,0.15243 -0.84736,0.29299 -1.44244,0.35057 -0.10627,-0.13663 -0.1018,-0.19027 -0.0973,-0.24393 z"
       id="path1052"
       style="stroke-width:0.264583" />
    <path
       fill="#150c0a"
       opacity="1"
       stroke="none"
       d="m 131.60368,148.98155 c 0.0579,0.0923 0.0535,0.14599 0.0454,0.28031 -0.15235,0.0262 -0.30118,-0.0282 -0.48637,-0.15575 -0.0364,-0.0731 -0.0334,-0.088 -0.0385,-0.0936 0.13562,-0.027 0.27631,-0.0483 0.47941,-0.0309 z"
       id="path1054"
       style="stroke-width:0.264583" />
    <path
       fill="#dcd2c5"
       opacity="1"
       stroke="none"
       d="m 126.60599,147.35684 c 0.004,0.40422 0.007,0.80843 0.0121,1.33382 -0.0434,0.13811 -0.0877,0.15503 -0.19875,0.19729 -1.58461,-0.002 -3.10262,-0.029 -4.74937,-0.11748 -0.19844,-0.0383 -0.26813,-0.0153 -0.33782,0.008 -2.73463,-0.39106 -4.85293,-2.46341 -5.28168,-5.43614 -0.24965,-1.73092 -0.21099,-3.50538 -0.27108,-5.26129 -0.16996,-4.96698 -0.3257,-9.93445 -0.48186,-14.90188 -0.0177,-0.56228 -0.002,-1.12559 -0.002,-1.71399 0.81866,0 1.59744,0 2.41555,0.11107 -0.23554,0.3977 -0.75493,0.69036 -0.74803,0.97004 0.0828,3.35952 0.24363,6.71711 0.30484,10.15834 -0.0262,2.70855 -0.12614,5.34807 0.11432,7.95621 0.39721,4.3083 3.20736,6.79599 7.21599,6.5966 0.73601,0.0501 1.37207,0.075 2.00814,0.0998 z"
       id="path1464"
       style="stroke-width:0.264583" />
    <path
       fill="#cfba98"
       opacity="1"
       stroke="none"
       d="m 117.34677,132.6211 c -0.14044,-3.3581 -0.30124,-6.71569 -0.38407,-10.0752 -0.007,-0.27969 0.5125,-0.57235 0.8315,-0.92509 1.21745,-0.12825 2.39076,-0.1904 3.68112,-0.12039 0.0296,0.69246 -0.12966,1.25228 -0.13333,1.81312 -0.0202,3.08322 -0.002,6.16668 -0.11922,9.27781 -1.37315,0.0284 -2.62457,0.0291 -3.876,0.0298 z"
       id="path1466"
       style="fill:#aaeeff;stroke-width:0.264583" />
    <path
       fill="#d6d5d4"
       opacity="1"
       stroke="none"
       d="m 121.34449,132.5636 c -0.005,-3.08338 -0.0227,-6.16684 -0.002,-9.25006 0.004,-0.56084 0.16294,-1.12066 0.25407,-1.78466 0.99042,-0.11883 1.97715,-0.13397 3.08179,-0.10944 0.82412,0.16306 1.53033,0.28647 2.27286,0.48456 -0.30916,0.11253 -0.66078,0.21082 -0.999,0.17661 -0.92843,-0.0939 -1.21008,0.28958 -1.20773,1.20597 0.004,1.39547 -0.10431,2.79627 -0.24889,4.18606 -0.32043,3.07995 -0.66116,6.15881 -1.07871,9.22654 -0.0631,0.46328 -0.58346,0.86432 -0.94742,1.21862 -0.21864,-0.61264 -0.43322,-1.14027 -0.53531,-1.68883 -0.22635,-1.21621 -0.39624,-2.44293 -0.58915,-3.66537 z"
       id="path1468"
       style="stroke-width:0.264583" />
    <path
       fill="#e1dace"
       opacity="1"
       stroke="none"
       d="m 121.3956,148.79612 c 0.006,-0.041 0.076,-0.064 0.16897,-0.0484 0.0233,0.0385 -0.10555,0.0665 -0.16897,0.0484 z"
       id="path1470"
       style="stroke-width:0.264583" />
    <path
       fill="#e67620"
       opacity="1"
       stroke="none"
       d="m 138.29226,133.87969 c 0.005,0.31827 -0.008,0.52391 -0.0177,0.95245 -0.0305,1.89491 -0.0642,3.56693 -0.0979,5.23895 -0.49494,2.62247 -1.40344,5.00381 -3.87141,6.4281 -0.52572,0.30341 -1.11692,0.49338 -1.83783,0.74858 -0.15991,0.013 -0.28245,0.0475 -0.28245,0.0475 -0.71756,-0.009 -1.43512,-0.0179 -2.27345,-0.17217 -0.12911,-2.2768 -0.13743,-4.40832 -0.14575,-6.53984 2.27121,-1.74951 2.95785,-4.24737 3.17851,-6.92171 0.0678,-0.82223 0.36628,-1.09278 1.33498,-0.97571 0.40826,-0.0113 0.60736,-0.0267 0.80644,-0.0421 0.19731,0.0102 0.39462,0.0205 0.68988,0.0158 0.53257,0.001 0.97841,0.0867 1.39954,0.0189 0.91334,-0.14713 1.17991,0.27483 1.1171,1.20126 z"
       id="path1472"
       style="fill:#37abc8;stroke-width:0.264583" />
    <path
       fill="#e1e5e0"
       opacity="1"
       stroke="none"
       d="m 122.52407,137.99332 c 0.30885,-0.42982 0.82926,-0.83086 0.89231,-1.29414 0.41755,-3.06773 0.75828,-6.14659 1.0787,-9.22654 0.14459,-1.38979 0.25249,-2.79059 0.2489,-4.18606 -0.002,-0.91639 0.2793,-1.29987 1.20773,-1.20597 0.33822,0.0342 0.68984,-0.0641 1.11274,-0.17491 1.29623,-0.073 2.51507,-0.073 3.84111,-0.073 -0.15274,0.13586 -0.2028,0.21585 -0.26766,0.23055 -0.12677,0.0287 -0.26184,0.021 -0.60178,0.0285 -0.79908,1.4e-4 -1.38983,1.4e-4 -1.88641,1.4e-4 -0.0779,1.45481 -0.0969,2.66612 -0.21805,3.86713 -0.17087,1.69408 -0.27117,3.41537 -0.66373,5.06257 -0.68923,2.8919 -1.51058,5.74297 -1.47903,8.75948 0.004,0.34149 -0.4925,0.6882 -0.84076,1.02373 -0.4655,-0.24637 -0.84711,-0.48399 -1.26476,-0.80501 -0.41044,-0.7244 -0.78488,-1.36543 -1.15931,-2.00646 z"
       id="path1474"
       style="stroke-width:0.264583" />
    <path
       fill="#eeedec"
       opacity="1"
       stroke="none"
       d="m 125.03202,140.81353 c 0.26438,-0.34427 0.76046,-0.69098 0.75688,-1.03247 -0.0315,-3.01651 0.7898,-5.86758 1.47903,-8.75948 0.39256,-1.6472 0.49286,-3.36849 0.66373,-5.06257 0.12114,-1.20101 0.14016,-2.41232 0.21805,-3.86713 0.49658,0 1.08733,0 1.795,7.9e-4 0.38015,0.44302 0.86858,0.8853 0.86827,1.32723 -0.002,2.09912 0.0101,4.21758 -0.26595,6.29151 -0.25661,1.92825 -0.89718,3.80308 -1.31573,5.71304 -0.22301,1.01757 -0.33769,2.05915 -0.49444,3.09093 -0.21976,1.44651 -1.0575,2.25958 -2.66433,2.53247 -0.45601,-0.0298 -0.74826,-0.1321 -1.04051,-0.23442 z"
       id="path1476"
       style="stroke-width:0.264583" />
    <path
       fill="#ca231c"
       opacity="1"
       stroke="none"
       d="m 124.94814,140.80479 c 0.37613,0.11106 0.66838,0.21338 1.053,0.30179 0.14083,0.006 0.18929,0.0261 0.34691,0.16246 -0.004,1.48726 -0.10663,2.85916 -0.23566,4.22853 -0.0808,0.85794 -0.10579,1.56954 1.13137,1.4899 0.75312,-0.0485 1.52164,0.14225 2.28324,0.22553 -0.90307,0.0346 -1.80613,0.0692 -2.8151,0.12384 -0.74198,-0.005 -1.37804,-0.0297 -2.18586,-0.15151 -1.05781,-0.15627 -1.42837,-0.5494 -1.36842,-1.51023 0.0923,-1.47848 -0.0135,-2.96852 0.0469,-4.45031 0.0158,-0.38689 0.33505,-0.76141 0.51493,-1.14161 0.38162,0.23762 0.76323,0.47524 1.22873,0.72161 z"
       id="path1478"
       style="fill:#55ddff;stroke-width:0.264583" />
    <path
       fill="#da2a20"
       opacity="1"
       stroke="none"
       d="m 129.59362,147.23314 c -0.82822,-0.10342 -1.59674,-0.29415 -2.34986,-0.24567 -1.23716,0.0796 -1.2122,-0.63196 -1.13137,-1.4899 0.12903,-1.36937 0.23125,-2.74127 0.30763,-4.19691 1.02546,-0.28044 2.08809,-0.47608 3.24826,-0.69457 0.10585,2.10866 0.11418,4.24018 0.12542,6.49549 -0.0426,0.13311 -0.088,0.14241 -0.20008,0.13156 m -2.3164,-5.6765 c 0,0 -0.0124,-0.0224 0,0 z"
       id="path1480"
       style="fill:#93a7ac;stroke-width:0.264583" />
    <path
       fill="#ede4d8"
       opacity="1"
       stroke="none"
       d="m 135.03147,132.58832 c -0.14481,0.0708 -0.3439,0.0862 -0.64142,0.0813 0.13009,-0.0591 0.35862,-0.0979 0.64142,-0.0813 z"
       id="path1482"
       style="stroke-width:0.264583" />
    <path
       fill="#dcd2c5"
       opacity="1"
       stroke="none"
       d="m 128.5801,148.84818 c 0.21842,-0.82678 0.67024,-0.7028 1.19313,-0.10434 -0.34862,0.10687 -0.71689,0.11852 -1.19313,0.10434 z"
       id="path1554"
       style="stroke-width:0.264583" />
    <path
       fill="#ede4d8"
       opacity="1"
       stroke="none"
       d="m 138.27014,140.00752 c -0.0598,-1.60845 -0.0261,-3.28047 0.0244,-5.07386 0.0342,1.58919 0.0516,3.29974 -0.0244,5.07386 z"
       id="path1556"
       style="stroke-width:0.264583" />
    <path
       fill="#dcd2c5"
       opacity="1"
       stroke="none"
       d="m 132.21146,147.32618 c -0.0264,-0.0309 0.0961,-0.0654 0.15891,-0.0554 0.0628,0.0101 -0.0201,0.095 -0.0201,0.095 0,0 -0.11234,-0.009 -0.13879,-0.0396 z"
       id="path1558"
       style="stroke-width:0.264583" />
    <path
       fill="#94291e"
       opacity="1"
       stroke="none"
       d="m 123.68338,139.99978 c -0.14385,0.4636 -0.46314,0.83812 -0.4789,1.22501 -0.0603,1.48179 0.0454,2.97183 -0.0469,4.45031 -0.0599,0.96083 0.31061,1.35396 1.26848,1.48494 -3.83687,0.29639 -6.64703,-2.19129 -7.04424,-6.49959 -0.24045,-2.60814 -0.14052,-5.24766 -0.11431,-7.95622 1.33065,-0.0838 2.58207,-0.0845 3.95522,-0.11288 0.31464,1.19469 0.48452,2.42141 0.71088,3.63762 0.10209,0.54856 0.31667,1.07619 0.53531,1.68883 0.42954,0.71655 0.80398,1.35758 1.21442,2.08198 z"
       id="path1712"
       style="fill:#87cdde;stroke-width:0.264583" />
    <path
       fill="#ca231c"
       opacity="1"
       stroke="none"
       d="m 127.27104,141.54546 c -0.006,-0.0112 0.006,0.0112 0,0 z"
       id="path1714"
       style="stroke-width:0.264583" />
  </g>
</svg>
