<?xml version="1.0" encoding="UTF-8" standalone="no"?>
<!-- Created with Inkscape (http://www.inkscape.org/) -->

<svg
   version="1.1"
   id="svg197"
   width="138.77084"
   height="77.934891"
   viewBox="0 0 138.77084 77.934891"
   sodipodi:docname="ITB_Logo_blank_farbe.svg"
   inkscape:version="1.2.2 (732a01da63, 2022-12-09)"
   xmlns:inkscape="http://www.inkscape.org/namespaces/inkscape"
   xmlns:sodipodi="http://sodipodi.sourceforge.net/DTD/sodipodi-0.dtd"
   xmlns="http://www.w3.org/2000/svg"
   xmlns:svg="http://www.w3.org/2000/svg">
  <defs
     id="defs201" />
  <sodipodi:namedview
     id="namedview199"
     pagecolor="#ffffff"
     bordercolor="#000000"
     borderopacity="0.25"
     inkscape:showpageshadow="2"
     inkscape:pageopacity="0.0"
     inkscape:pagecheckerboard="0"
     inkscape:deskcolor="#d1d1d1"
     showgrid="false"
     inkscape:zoom="0.97253788"
     inkscape:cx="-101.2814"
     inkscape:cy="38.044791"
     inkscape:window-width="3840"
     inkscape:window-height="2054"
     inkscape:window-x="-11"
     inkscape:window-y="-11"
     inkscape:window-maximized="1"
     inkscape:current-layer="g205">
    <inkscape:page
       x="0"
       y="0"
       id="page203"
       width="138.77084"
       height="77.934891" />
  </sodipodi:namedview>
  <g
     id="g205"
     inkscape:groupmode="layer"
     inkscape:label="Page 1"
     transform="matrix(1.3333333,0,0,-1.3333333,-362.85155,566.66665)">
    <g
       id="g207"
       transform="scale(1,-1)">
      <path
         d="m 332.88086,-408.36719 c 0,0 3.22461,0 3.22461,0 0,0 0,10.00098 0,10.00098 0,0 9.75586,0 9.75586,0 0,0 0,3.14795 0,3.14795 0,0 -9.75586,0 -9.75586,0 0,0 0,10.02099 0,10.02099 0,0 -3.22461,0 -3.22461,0 0,0 0,-10.02099 0,-10.02099 0,0 -9.75781,0 -9.75781,0 0,0 0,-3.14795 0,-3.14795 0,0 9.75781,0 9.75781,0 0,0 0,-10.00098 0,-10.00098 0,0 0,0 0,0 z"
         style="fill:#da193b;fill-opacity:1;fill-rule:evenodd;stroke:none"
         id="path209" />
      <path
         d="m 349.76172,-391.97754 c 0,0 4.82226,0 4.82226,0 6.18165,0 9.35157,2.78223 9.35157,7.60547 0,5.23633 -3.1836,8.09375 -9.51172,8.09375 0,0 -22.0332,0 -22.0332,0 0,0 0,9.72949 0,9.72949 0,0 14.22265,0 14.22265,0 9.02735,0 16.02344,-0.085 21.87891,-3.27051 4.79687,-2.61328 7.72461,-7.67968 7.72461,-13.40527 0,-7.84961 -4.79883,-12.67187 -14.23633,-14.06396 8.13867,-1.39112 12.20703,-5.55469 12.20703,-12.50049 0,-5.396 -2.61133,-9.81494 -7.08008,-12.34278 C 362.15039,-424.82959 355.9668,-425 347.99805,-425 c 0,0 -15.5293,0 -15.5293,0 0,0 0,9.64453 0,9.64453 0,0 20.08398,0 20.08398,0 6.98829,0 10.08399,1.55078 10.08399,6.7876 0,5.39502 -3.42774,6.9458 -10.33594,6.9458 0,0 -2.53906,0 -2.53906,0 0,0 0,9.64453 0,9.64453 0,0 0,0 0,0 z"
         style="fill:#9ba1a3;fill-opacity:1;fill-rule:evenodd;stroke:none"
         id="path211" />
      <path
         d="m 314.64063,-415.50098 c 0,0 14.30859,0 14.30859,0 0,0 0,-9.35302 0,-9.35302 0,0 -40.99561,0 -40.99561,0 0,0 0,9.35302 0,9.35302 0,0 14.23633,0 14.23633,0 0,0 0,48.80664 0,48.80664 0,0 12.45069,0 12.45069,0 0,0 0,-48.80664 0,-48.80664 0,0 0,0 0,0 z"
         style="fill:#9ba1a3;fill-opacity:1;fill-rule:evenodd;stroke:none"
         id="path213" />
      <path
         d="m 272.13867,-366.69434 c 0,0 12.4502,0 12.4502,0 0,0 0,-58.15966 0,-58.15966 0,0 -12.4502,0 -12.4502,0 0,0 0,58.15966 0,58.15966 0,0 0,0 0,0 z"
         style="fill:#9ba1a3;fill-opacity:1;fill-rule:evenodd;stroke:none"
         id="path215" />
    </g>
  </g>
</svg>
