<?xml version="1.0" encoding="UTF-8" standalone="no"?>
<!-- Created with Inkscape (http://www.inkscape.org/) -->

<svg
   width="128.45027mm"
   height="128.03561mm"
   viewBox="0 0 128.45027 128.03561"
   version="1.1"
   id="svg15"
   xml:space="preserve"
   inkscape:version="1.2.2 (732a01da63, 2022-12-09)"
   sodipodi:docname="waitingIcon.svg"
   xmlns:inkscape="http://www.inkscape.org/namespaces/inkscape"
   xmlns:sodipodi="http://sodipodi.sourceforge.net/DTD/sodipodi-0.dtd"
   xmlns="http://www.w3.org/2000/svg"
   xmlns:svg="http://www.w3.org/2000/svg"><sodipodi:namedview
     id="namedview17"
     pagecolor="#ffffff"
     bordercolor="#000000"
     borderopacity="0.25"
     inkscape:showpageshadow="2"
     inkscape:pageopacity="0.0"
     inkscape:pagecheckerboard="0"
     inkscape:deskcolor="#d1d1d1"
     inkscape:document-units="mm"
     showgrid="false"
     inkscape:zoom="2.8079686"
     inkscape:cx="226.3202"
     inkscape:cy="254.27635"
     inkscape:window-width="2880"
     inkscape:window-height="1526"
     inkscape:window-x="2869"
     inkscape:window-y="103"
     inkscape:window-maximized="1"
     inkscape:current-layer="g674" /><defs
     id="defs12" /><g
     inkscape:label="Ebene 1"
     inkscape:groupmode="layer"
     id="layer1"
     transform="translate(-7.0096431,-5.8979428)"><g
       id="g674"
       style="fill:#cb8840;fill-opacity:1"
       transform="matrix(0.13855334,0,0,0.13855334,-4.5179952,-6.0238027)"><rect
         style="display:inline;fill:#f4e3d7;fill-opacity:1"
         id="rect6992"
         width="775.32855"
         height="852.96777"
         x="160.83922"
         y="142.41264"
         sodipodi:insensitive="true" /><path
         style="display:inline;fill:#cb8840;fill-opacity:1;stroke-width:1.06667"
         d="M 101.34966,859.23652 C 96.695944,644.79603 100.97211,373.38824 99.131839,160.26507 113.5112,99.766448 97.171371,108.30769 163.81503,104.22697 c 266.44064,1.2608 617.65395,-1.33984 794.43112,3.98662 10.08126,22.0352 32.90969,2.09026 31.54098,61.96578 3.91427,151.47397 7.09645,294.65064 6.8937,427.06463 C 775.12057,348.23317 554.45067,280.48461 269.45234,222.59248 c 9.16001,131.04025 -2.46683,410.12415 14.6567,561.91451 101.40524,79.65433 -0.83906,102.59119 67.35802,204.7986 -49.70089,5.2837 -131.77763,12.03641 -167.09113,5.86974 -81.53005,-10.21915 -83.46877,-49.44969 -83.02627,-135.93881 z m 182.02813,-68.48094 c -2.85783,-1.41409 1.59218,4.57052 0,0 z m -0.71111,-1.95556 c -1.22118,-2.31241 -1.33053,2.20731 0,0 z m 1.06666,-3.2 c -1.22117,-2.31241 -1.33051,2.2073 0,0 z M 755.68702,246.42398 c -448.32468,-106.91969 -224.16234,-53.45984 0,0 z m -414.72375,24.24269 c -15.5837,-3.44732 25.50533,0.59118 -0.49597,0.80002 l 0.49597,-0.8 z m 44.90341,0.53488 c 19.46667,-0.61216 38.93333,0.0632 58.4,0.31634 h -77.86667 c 6.48889,-0.10545 12.97778,-0.21089 19.46667,-0.31634 z m 83.2,3.7e-4 c 17.33333,-0.61884 34.66667,0.0624 52,0.32143 h -69.33333 c 5.77778,-0.10714 11.55555,-0.21429 17.33333,-0.32143 z m 68.26667,0.004 c 15.76864,-0.7993 37.22159,0.9484 8.8,0.35936 -6.71964,-0.0473 -26.81139,0.18928 -8.8,-0.35936 z m -204.53334,-0.80617 c 1.22115,-2.31243 1.33056,2.20729 0,0 z m 0.35555,-2.31112 c 4.90632,-1.43652 -1.38492,3.14943 0,0 z m -7.82222,-3.02222 c 1.22118,-2.31241 1.33053,2.20731 0,0 z m -9.6,-2.13333 c 1.22117,-2.31241 1.33055,2.20728 0,0 z m -3.2,-1.06667 c 1.22118,-2.31241 1.33053,2.20731 0,0 z m -6.4,-2.13333 c 1.22117,-2.31241 1.33055,2.20728 0,0 z m -3.2,-1.06667 c 1.22118,-2.31241 1.33053,2.20731 0,0 z"
         id="path686"
         sodipodi:nodetypes="cccccccccccccccccccsccsccccccccccccccccccccccccc"
         sodipodi:insensitive="true" /><path
         style="display:inline;fill:#e48829;fill-opacity:1;stroke-width:1.06667"
         d="m 520.53335,842.84718 c -28.06671,-1.05173 -56.81306,-7.27616 -83.01276,-20.74692 -56.93305,-36.9863 -76.05909,-69.17077 -91.69788,-130.71612 -16.17022,-65.10339 -13.17627,-132.39647 -12.98075,-199.90403 -0.44286,-74.15435 1.22351,-150.34988 0.66927,-224.50396 17.45573,2.60762 35.14589,1.0232 53.59173,2.28882 57.42923,1.49072 121.4976,-0.27414 178.93137,0.51706 1.93207,62.99258 -0.1973,36.689 -0.78462,53.45767 -1.17595,121.53203 5.40891,243.43826 -6.2359,364.62048 -2.31867,21.31204 -4.43783,39.81701 -8.54146,59.1415 -3.67875,21.53888 -11.9905,99.56307 -28.06879,98.05573 z"
         id="path222"
         sodipodi:nodetypes="cccccccccccc"
         sodipodi:insensitive="true" /><path
         style="display:inline;fill:#59341a;fill-opacity:1;stroke-width:1.06667"
         d="m 998.95981,596.90495 c -0.19525,113.94317 -7.82248,217.6853 -8.01683,331.62847 1.03286,44.42949 -23.44071,73.51088 -157.18059,64.17085 C 400.10565,1186.1488 582.1398,-2.4222118 998.95981,596.90495 Z M 469.86668,919.81104 c -61.16254,-3.17132 -123.32654,-6.11446 -180.30473,-29.65046 -16.98606,-3.34049 -21.28285,-20.72244 1.63807,-27.09254 15.80482,-6.95526 32.75926,-15.8609 49.19903,-15.30799 722.74005,33.82976 231.14397,137.11253 129.46764,72.05099 z m 90.61505,-254.12168 c 3.2302,-127.10018 2.25614,-226.3286 4.75684,-396.03139 44.04286,-0.68681 131.87798,-24.01972 146.7617,-10.45727 536.27573,544.72251 186.06685,805.2816 -190.4141,595.15352 20.347,-41.2233 31.43824,-128.42581 38.89556,-188.66486 z m 4.49607,-36.00045 c -2.85786,-1.41406 1.5922,4.57052 0,0 z"
         id="path678"
         sodipodi:nodetypes="ccccsccccsccccccc"
         sodipodi:insensitive="true" /><path
         style="display:inline;fill:#281d16;fill-opacity:1;stroke-width:1.06667"
         d="M 164.6032,1010.0715 C 114.71861,1008.4816 81.317989,973.702 83.852512,926.70597 82.66864,654.65317 84.195622,392.31686 84.247265,152.39545 83.689626,105.45444 112.95702,87.282269 153.67172,87.132108 c 247.15406,-0.0055 530.37425,-0.732283 777.52831,-0.737773 53.31737,0.08248 79.93117,31.139755 79.79017,73.386295 -0.1135,256.05286 -0.351,514.48823 -0.5335,771.36703 1.8632,49.74874 -37.70834,79.18114 -78.52991,79.25514 -83.5465,0.124 -705.61385,-0.2664 -767.32359,-0.3313 z M 341.80388,982.96728 C 301.64622,959.358 261.88267,932.92889 221.85053,908.56145 c -17.02198,-10.72855 -25.3678,-36.10484 -8.55356,-50.74402 24.6511,-25.77655 60.81928,-34.21621 93.84512,-44.08523 -39.98893,-44.38023 -57.19107,-105.46036 -52.71929,-164.43476 0.0839,-144.52246 0.16776,-289.04491 0.25164,-433.56737 9.59039,-29.61179 43.39763,-42.91096 71.60525,-49.46905 53.55812,-8.50768 108.38314,-2.29034 162.47513,-4.0015 60.97925,0.82673 122.78062,-1.10842 183.24522,1.44724 30.6774,4.50942 70.28322,18.21464 79.47588,51.70902 0.20509,58.22555 0.41018,116.45111 0.61528,174.67666 62.18341,-2.1669 118.08676,37.65056 149.16133,89.43266 21.19691,32.94448 24.60201,83.98598 20.52836,124.50525 -12.09086,63.64898 -62.296,122.16569 -126.91877,135.27346 -17.21496,4.63223 -37.23836,0.0922 -53.1424,1.56322 -8.60979,25.44606 -21.24696,49.64495 -38.76365,70.33296 43.67672,10.45837 93.13275,19.44084 124.07924,54.62895 16.28209,23.35237 -9.09622,46.05725 -28.94594,55.8443 -32.82641,16.01544 -58.52183,42.15667 -88.22433,62.83653 74.37087,-0.75673 149.14409,0.81518 223.26611,-1.38179 33.01958,-0.0683 55.8572,-22.59831 57.41541,-51.41803 1.31999,-247.27969 -3.26602,-523.89494 -3.7194,-771.17664 -0.50845,-34.96302 -19.85497,-47.66089 -64.28796,-49.08161 -256.26054,0.17155 -512.66536,-1.07382 -768.83584,-0.0179 -33.35316,-1.41645 -46.742,10.87147 -46.90936,39.33298 l -0.16064,773.03079 c -0.0352,37.29101 26.19967,60.66436 60.33647,60.57876 52.71619,0.0523 124.18678,0.10468 176.90297,0.15702 l -2.07054,-1.56608 z M 316.80001,965.8667 c -1.22115,-2.31243 -1.33056,2.20729 0,0 z m 261.04008,-46.41127 c 55.49101,-2.73427 112.28547,-9.67014 163.84211,-31.09936 14.50816,-3.79987 15.02578,-19.35357 0.18449,-22.91576 -24.70767,-9.06276 -50.62443,-16.15978 -76.8395,-18.50695 -60.00099,28.75462 -120.54911,60.74411 -186.73894,53.29794 -50.06418,-2.75891 -99.22307,-20.07716 -137.97175,-52.29948 -15.13743,4.05649 -45.66811,10.94251 -62.98316,24.68788 0.90192,16.38296 23.94095,18.08012 36.10053,24.04177 85.10213,25.54253 175.4524,25.09215 264.40622,22.79396 z m -57.89026,-64.15996 c 57.85662,-3.71723 161.99273,-47.08163 188.6359,-134.68659 8.93303,-140.67175 3.41435,-309.27079 3.41435,-461.40894 -153.1541,18.20087 -350.7478,11.83372 -368.53345,8.91238 -16.28624,-1.96953 -21.53371,-5.17913 -36.82856,-9.17909 -21.36467,-14.84627 -16.59762,4.62042 -16.54514,21.58851 0.72757,129.18051 -0.45733,258.49627 1.46322,387.59241 5.57279,64.76222 38.62941,129.63373 97.86719,160.50479 39.6125,20.96966 86.21265,30.66124 130.52649,26.67653 z m 273.60176,-162.106 C 850.64503,677.18327 884.03,614.89006 884.26659,558.39112 880.95651,491.29709 820.1218,429.85398 751.73437,432.74056 l 1.02564,258.57956 c 11.3645,7.23229 28.02782,5.15708 40.79196,1.86935 z M 682.9298,232.21545 c 12.25267,-1.3494 36.96613,-15.30095 16.27022,-24.98981 -34.67693,-15.12809 -74.31525,-6.41942 -111.15808,-8.78206 -81.8249,0.68186 -163.8246,-1.33902 -245.53927,1.04727 -14.82457,0.87874 -30.05212,7.22276 -41.0213,15.41266 -1.37803,7.69526 11.54471,11.14824 22.53098,14.60309 43.92866,9.84334 89.55724,2.69652 134.21682,4.77827 73.32233,-0.5131 146.8489,0.63999 220.0433,-0.91671 1.55244,-0.38424 3.10489,-0.76847 4.65733,-1.15271 z"
         id="path676"
         sodipodi:nodetypes="cccccccccccccccccccccccccccccccccccccccccccccccccccccccccccccccccccccccccc"
         sodipodi:insensitive="true" /></g></g></svg>
